<svg xmlns="http://www.w3.org/2000/svg" viewBox="0 0 750 500"><g id="freepik--background-complete--inject-6"><g><g><path d="M458.62,358.03s-29.56,65.84,18.81,65.84,17.02-68.08,17.02-68.08c0,0,11.2-4.93-1.79-41.65-12.99-36.72-18.79-36.72-24.18-36.72-6.82,0-13.16,15.9-8.51,40.31,0,0-17.02,30.45-1.34,40.31Z" style="fill:#ebebeb;"></path><g><polygon points="481.73 467.53 477.06 368.36 472.4 467.53 481.73 467.53" style="fill:#a6a6a6;"></polygon><polygon points="478.96 409.94 461.38 389.4 475.17 412.65 478.96 409.94" style="fill:#a6a6a6;"></polygon></g></g><g><path d="M113.84,361.56s28.61,63.72-18.2,63.72-16.47-65.88-16.47-65.88c0,0-10.84-4.77,1.73-40.31,12.57-35.54,18.19-35.54,23.41-35.54,6.6,0,12.74,15.39,8.24,39.01,0,0,16.47,29.47,1.3,39.01Z" style="fill:#dbdbdb;"></path><g><polygon points="91.48 467.53 95.99 371.55 100.5 467.53 91.48 467.53" style="fill:#a6a6a6;"></polygon><polygon points="94.16 411.79 111.17 391.92 97.83 414.42 94.16 411.79" style="fill:#a6a6a6;"></polygon></g></g><g><path d="M569.76,361.56s28.61,63.72-18.2,63.72-16.47-65.88-16.47-65.88c0,0-10.84-4.77,1.73-40.31,12.57-35.54,18.19-35.54,23.41-35.54,6.6,0,12.74,15.39,8.24,39.01,0,0,16.47,29.47,1.3,39.01Z" style="fill:#dbdbdb;"></path><g><polygon points="547.4 467.53 551.92 371.55 556.43 467.53 547.4 467.53" style="fill:#a6a6a6;"></polygon><polygon points="550.08 411.79 567.09 391.92 553.75 414.42 550.08 411.79" style="fill:#a6a6a6;"></polygon></g></g><g><path d="M282.25,361.56s-28.61,63.72,18.2,63.72,16.47-65.88,16.47-65.88c0,0,10.84-4.77-1.73-40.31-12.57-35.54-18.19-35.54-23.41-35.54-6.6,0-12.74,15.39-8.24,39.01,0,0-16.47,29.47-1.3,39.01Z" style="fill:#dbdbdb;"></path><g><polygon points="304.61 467.53 300.1 371.55 295.58 467.53 304.61 467.53" style="fill:#a6a6a6;"></polygon><polygon points="301.93 411.79 284.92 391.92 298.26 414.42 301.93 411.79" style="fill:#a6a6a6;"></polygon></g></g><g><path d="M649.29,356.75s14.92-5.92,26.76,14.68c12.14,21.13-3.08,35.05-15.16,26.76,0,0-9.47,19.89-28.42,15.16-18.95-4.74-22.03-19.89-22.03-19.89,0,0-16.81,1.18-17.29-11.37-.47-12.55,11.84-23.68,11.84-23.68,0,0,.71-31.26,21.08-31.02,20.37,.24,23.21,29.37,23.21,29.37Z" style="fill:#ebebeb;"></path><g><polygon points="635.43 467.53 631.17 374.51 626.91 467.53 635.43 467.53" style="fill:#a6a6a6;"></polygon><polygon points="633 408.35 645.51 383.37 629.34 406.16 633 408.35" style="fill:#a6a6a6;"></polygon></g></g><g><path d="M226.77,346.5s-16.3-6.47-29.24,16.04c-13.27,23.08,3.36,38.29,16.56,29.24,0,0,10.35,21.73,31.05,16.56,20.7-5.18,24.06-21.73,24.06-21.73,0,0,18.37,1.29,18.89-12.42,.52-13.71-12.94-25.87-12.94-25.87,0,0-.78-34.15-23.03-33.9-22.25,.26-25.36,32.08-25.36,32.08Z" style="fill:#ebebeb;"></path><g><polygon points="241.91 467.53 246.56 365.9 251.22 467.53 241.91 467.53" style="fill:#a6a6a6;"></polygon><polygon points="244.57 402.87 230.9 375.59 248.56 400.48 244.57 402.87" style="fill:#a6a6a6;"></polygon></g></g></g><g><path d="M563.82,141.11c7.19,0,128.17,.8,135.77,.55,.55-.02,.84-.82,.3-1.09-4.79-2.37-10.23-1.9-15.21-3.58-2.93-.99-4.73-2.9-6.76-5.1-1.76-1.9-3.79-3.36-6.3-4.11-2.21-.66-4.61-.75-6.85-.21-2.45,.59-4.59,1.99-6.93,2.88-5.81,2.19-11.46,.11-15.61-4.19-3.42-3.54-6.79-6.89-11.44-8.8-3.9-1.6-8.22-1.93-12.12-.17-4.44,2.01-7.48,6.05-11.65,8.49-4.94,2.89-10.85,2.21-16.31,3.08-5.47,.87-9.65,5.47-14.43,8.11-1.64,.91-3.31,1.66-5.22,1.62-1.07-.03-2.12-.32-3.18-.45-1.65-.2-3.21-.16-4.32,1.22-.27,.34-.21,1.76,.26,1.76Z" style="fill:#ebebeb;"></path><path d="M50.13,86.79c5.25,0,93.58,.58,99.13,.4,.4-.01,.61-.6,.22-.8-3.5-1.73-7.47-1.38-11.11-2.61-2.14-.72-3.45-2.12-4.94-3.72-1.28-1.39-2.77-2.45-4.6-3-1.62-.48-3.36-.55-5-.16-1.79,.43-3.35,1.45-5.06,2.1-4.24,1.6-8.37,.08-11.4-3.06-2.5-2.59-4.96-5.03-8.35-6.42-2.84-1.17-6-1.41-8.85-.12-3.24,1.47-5.46,4.42-8.51,6.2-3.61,2.11-7.92,1.61-11.91,2.25-4,.64-7.04,3.99-10.54,5.92-1.19,.66-2.42,1.21-3.81,1.18-.78-.02-1.55-.23-2.32-.33-1.2-.15-2.35-.11-3.15,.89-.2,.25-.16,1.28,.19,1.28Z" style="fill:#ebebeb;"></path><path d="M422.57,223.55c5.25,0,93.58,.58,99.13,.4,.4-.01,.61-.6,.22-.8-3.5-1.73-7.47-1.38-11.11-2.61-2.14-.72-3.45-2.12-4.94-3.72-1.28-1.39-2.77-2.45-4.6-3-1.62-.48-3.36-.55-5-.16-1.79,.43-3.35,1.45-5.06,2.1-4.24,1.6-8.37,.08-11.4-3.06-2.5-2.59-4.96-5.03-8.35-6.42-2.84-1.17-6-1.41-8.85-.12-3.24,1.47-5.46,4.42-8.51,6.2-3.61,2.11-7.92,1.61-11.91,2.25-4,.64-7.04,3.99-10.54,5.92-1.19,.66-2.42,1.21-3.81,1.18-.78-.02-1.55-.23-2.32-.33-1.2-.15-2.35-.11-3.15,.89-.2,.25-.16,1.28,.19,1.28Z" style="fill:#ebebeb;"></path><path d="M250.73,114.94c5.25,0,93.58,.58,99.13,.4,.4-.01,.61-.6,.22-.79-3.5-1.73-7.47-1.38-11.11-2.61-2.14-.72-3.45-2.12-4.94-3.72-1.28-1.39-2.77-2.45-4.6-3-1.62-.48-3.36-.55-5-.16-1.79,.43-3.35,1.45-5.06,2.1-4.24,1.6-8.37,.08-11.4-3.06-2.5-2.59-4.96-5.03-8.35-6.42-2.84-1.17-6-1.41-8.85-.12-3.24,1.47-5.46,4.42-8.51,6.2-3.61,2.11-7.92,1.61-11.91,2.25-4,.64-7.04,3.99-10.54,5.92-1.19,.66-2.42,1.21-3.81,1.18-.78-.02-1.55-.23-2.32-.33-1.2-.15-2.35-.11-3.15,.89-.2,.24-.16,1.28,.19,1.28Z" style="fill:#ebebeb;"></path><path d="M97.09,170.76c.1,.3,139.22,0,137.46,0-.8,0,1.21-1.2,.43-1.58-4.53-2.25-9.48-2.31-14.41-2.76-2.88-.26-5.83-.68-8.42-2.04-2.62-1.37-4.26-3.76-6.12-5.96-5.75-6.83-14.9-10.39-23.76-9-9.89,1.55-17.69,9.09-27.6,10.47-5.95,.83-11.58-1.47-17.4-2.28-4.79-.66-8.78,.27-13.06,2.39-3.14,1.55-6.04,2.87-9.58,3.11-2.72,.19-5.46-.12-8.19-.15-4.37-.04-8.68,1.85-12.05,4.82-.44,.39-1.84,2.99,2.7,2.99Z" style="fill:#ebebeb;"></path><path d="M502.06,246.8c.1,.3,139.22,0,137.46,0-.8,0,1.21-1.2,.43-1.58-4.53-2.25-9.48-2.31-14.41-2.76-2.88-.26-5.83-.68-8.42-2.04-2.62-1.37-4.26-3.76-6.12-5.96-5.75-6.83-14.9-10.39-23.76-9-9.89,1.55-17.69,9.09-27.6,10.47-5.95,.83-11.58-1.47-17.4-2.28-4.79-.66-8.78,.27-13.06,2.39-3.14,1.56-6.04,2.87-9.58,3.11-2.72,.19-5.46-.12-8.19-.15-4.37-.04-8.68,1.85-12.05,4.82-.44,.39-1.84,2.99,2.7,2.99Z" style="fill:#ebebeb;"></path></g></g><g id="freepik--Plants--inject-6"><g><path d="M265.93,467.6h-56.99s.13-8.48,5.73-10.73c5.6-2.25,8.93,2.14,8.93,2.14,0,0,2.29-15.6,12.73-15.6s15.44,13.46,15.44,13.46c0,0,2.34-4.07,8.13-3.31,5.8,.76,6.03,14.04,6.03,14.04Z" style="fill:#455a64;"></path><path d="M583.4,467.6s-1.75-8.15-5.24-9.41c-3.49-1.26-5.61,2.4-5.61,2.4,0,0-.82-7.79-5.77-10.12-4.95-2.33-8.66,2.44-8.66,2.44,0,0-3.8-9.88-10.58-9.88s-10.2,14.46-10.2,14.46c0,0-4-4.31-8.11-1.88-4.1,2.43-4.1,11.98-4.1,11.98h58.27Z" style="fill:#37474f;"></path><path d="M219.15,467.6h-52.55s1.73-7.41,5.22-7.93c3.48-.52,5.11,2.91,5.11,2.91,0,0-.16-10.33,6.35-12.09,6.51-1.76,11.97,7.37,11.97,7.37,0,0,4.08-5.21,9.64-4.87,5.56,.33,6.97,8.93,6.97,8.93,0,0,5.06-2.99,7.3,5.68Z" style="fill:#37474f;"></path><path d="M528.9,467.6h-32.29s.07-4.81,3.25-6.08,5.06,1.21,5.06,1.21c0,0,1.29-8.84,7.21-8.84s8.75,7.62,8.75,7.62c0,0,1.32-2.3,4.61-1.88,3.28,.43,3.41,7.96,3.41,7.96Z" style="fill:#455a64;"></path></g></g><g id="freepik--Floor--inject-6"><g><rect x="71.7" y="467.6" width="606.61" height="5.38" style="fill:#a6a6a6;"></rect><g><path d="M102.91,467.6c.68,1.78,.69,3.6,0,5.38-.69-1.78-.68-3.6,0-5.38h0Z" style="fill:#263238;"></path><path d="M139.19,467.6c.68,1.78,.69,3.6,0,5.38-.69-1.78-.68-3.6,0-5.38h0Z" style="fill:#263238;"></path><path d="M175.46,467.6c.68,1.78,.69,3.6,0,5.38-.69-1.78-.68-3.6,0-5.38h0Z" style="fill:#263238;"></path><path d="M211.74,467.6c.68,1.78,.69,3.6,0,5.38-.69-1.78-.68-3.6,0-5.38h0Z" style="fill:#263238;"></path><path d="M248.02,467.6c.68,1.78,.69,3.6,0,5.38-.69-1.78-.68-3.6,0-5.38h0Z" style="fill:#263238;"></path><path d="M284.3,467.6c.68,1.78,.69,3.6,0,5.38-.69-1.78-.68-3.6,0-5.38h0Z" style="fill:#263238;"></path><path d="M320.58,467.6c.68,1.78,.69,3.6,0,5.38-.69-1.78-.68-3.6,0-5.38h0Z" style="fill:#263238;"></path><path d="M356.86,467.6c.68,1.78,.69,3.6,0,5.38-.69-1.78-.68-3.6,0-5.38h0Z" style="fill:#263238;"></path><path d="M393.14,467.6c.68,1.78,.69,3.6,0,5.38-.69-1.78-.68-3.6,0-5.38h0Z" style="fill:#263238;"></path><path d="M429.42,467.6c.68,1.78,.69,3.6,0,5.38-.69-1.78-.68-3.6,0-5.38h0Z" style="fill:#263238;"></path><path d="M465.7,467.6c.68,1.78,.69,3.6,0,5.38-.69-1.78-.68-3.6,0-5.38h0Z" style="fill:#263238;"></path><path d="M501.98,467.6c.68,1.78,.69,3.6,0,5.38-.69-1.78-.68-3.6,0-5.38h0Z" style="fill:#263238;"></path><path d="M538.26,467.6c.68,1.78,.69,3.6,0,5.38-.69-1.78-.68-3.6,0-5.38h0Z" style="fill:#263238;"></path><path d="M574.54,467.6c.68,1.78,.69,3.6,0,5.38-.69-1.78-.68-3.6,0-5.38h0Z" style="fill:#263238;"></path><path d="M610.81,467.6c.68,1.78,.69,3.6,0,5.38-.69-1.78-.68-3.6,0-5.38h0Z" style="fill:#263238;"></path><path d="M647.09,467.6c.68,1.78,.69,3.6,0,5.38-.69-1.78-.68-3.6,0-5.38h0Z" style="fill:#263238;"></path></g></g><path d="M70.54,472.98c195.06-.61,413.86-.62,608.92,0-195.06,.62-413.86,.61-608.92,0h0Z" style="fill:#263238;"></path></g><g id="freepik--Character_3--inject-6"><g><g><g><g><path d="M663.8,466.42c-2.68,.9-81.57,.93-84.49-.93-.54-.33,3.11-75.13,3.11-75.13l48.24,.25-1.92,49.31s29.39,13.15,32.39,15.53c2.97,2.37,5.35,10.09,2.66,10.98Z" style="fill:#eb9481;"></path><path d="M663.8,466.42c-2.68,.9-81.57,.93-84.49-.93-.54-.33,3.11-75.13,3.11-75.13l48.24,.25-1.92,49.31s29.39,13.15,32.39,15.53c2.97,2.37,5.35,10.09,2.66,10.98Z" style="opacity:.1;"></path><path d="M579.32,465.49c2.92,1.85,81.81,1.83,84.49,.93,2.68-.89,.32-8.6-2.67-10.98-2.99-2.38-32.38-15.53-32.38-15.53l.29-7.43h-48.6c-.75,17.06-1.38,32.85-1.13,33Z" style="fill:#ebebeb;"></path><g><path d="M664.32,466.64c-2.74,.92-82.25,1.61-85.25-.28-1.14-.71-.57-13.4,.48-26.8h49.84s29.11,13.42,32.18,15.84c3.05,2.42,5.49,10.31,2.75,11.23Z" style="fill:#FF570A;"></path><path d="M664.32,466.64c-2.74,.92-82.25,1.61-85.25-.28-1.14-.71-.57-13.4,.48-26.8h49.84s29.11,13.42,32.18,15.84c3.05,2.42,5.49,10.31,2.75,11.23Z" style="opacity:.1;"></path><g><g><path d="M663.19,463.5c-13.17-.3-66.3-.29-79.34,.41-.11,0-.11,.08,0,.08,13.04,.59,66.18,.14,79.34-.28,.28,0,.28-.21,0-.22Z" style="fill:#263238;"></path><path d="M656.52,452.59c-3.12-.12-6.17,1.36-7.87,3.23-1.63,1.79-3.03,4.3-2.93,7.03,0,.08,.15,.08,.16,0,.74-5.15,5.42-9.69,10.65-10.09,.1,0,.11-.16,0-.16Z" style="fill:#263238;"></path><path d="M633.53,440.88c-5.27-.07-11.38,1.8-14.65,6.12-.13,.17,.11,.34,.27,.26,4.76-2.46,9.29-4.3,14.47-5.73,.37-.1,.29-.64-.09-.65Z" style="fill:#263238;"></path><path d="M637.6,442.46c-5.27-.07-11.38,1.8-14.65,6.12-.13,.17,.11,.34,.27,.26,4.76-2.46,9.29-4.3,14.47-5.73,.37-.1,.29-.64-.09-.65Z" style="fill:#263238;"></path><path d="M641.67,444.04c-5.27-.07-11.38,1.8-14.65,6.12-.13,.17,.11,.34,.27,.26,4.76-2.46,9.29-4.3,14.47-5.73,.36-.1,.29-.64-.09-.65Z" style="fill:#263238;"></path><path d="M645.74,445.62c-5.27-.07-11.38,1.8-14.65,6.12-.13,.17,.11,.34,.27,.26,4.76-2.46,9.29-4.3,14.47-5.73,.37-.1,.29-.64-.09-.65Z" style="fill:#263238;"></path><path d="M587.19,451.4c-5.91,.03-5.88,9.21,.04,9.19,5.91-.03,5.88-9.21-.04-9.19Z" style="fill:#fff;"></path></g><path d="M639.21,426.81c-2.68-2.21-6.04-.04-7.67,2.25-2.09,2.94-3.67,6.79-4.38,10.51-.12,.53-.2,1.06-.27,1.57-.02,.23-.05,.46-.08,.67,.02,.02,0,.02,0,.02v.18c-.01,.19-.03,.37-.05,.55,0,.11,.09,.16,.18,.14,.05,.25,.27,.47,.53,.51,.12,.03,.26,.02,.4-.07,1.03-.71,2.12-1.43,3.2-2.14,.19-.11,.37-.23,.56-.36,2.64-1.75,5.25-3.6,7.17-6.1,1.65-2.14,2.93-5.62,.41-7.71Zm-6.45,11.2c-.87,.64-1.77,1.27-2.64,1.89-.75,.53-1.49,1.07-2.22,1.62-.1,.07-.21,.16-.3,.23-.09,.07-.19,.14-.28,.21,.03-.11,.07-.21,.1-.32t.02-.04c.24-.69,.48-1.36,.7-2.05,.64-1.84,1.29-3.66,2.14-5.42,.57-1.2,1.18-2.44,1.91-3.56,1.15-1.74,6.32-6.15,6.85-.41,.29,3.15-4.12,6.27-6.27,7.84Z" style="fill:#263238;"></path><path d="M627.9,442.24c.07-.05,.09-.14,.02-.23-.11-.1-.21-.19-.32-.26-.04-.07-.09-.1-.12-.12-.02-.02-.02-.04-.04-.02-.18-.19-.35-.33-.55-.47-.67-.58-1.4-1.1-2.14-1.57-2.92-1.93-6.37-3.4-9.59-4.02-2.77-.54-6.69,.22-7.1,3.65-.02,.12-.02,.25-.01,.37-.11,3.01,3.07,4.55,5.64,4.95,2.7,.4,5.46,.11,8.18-.33,1.88-.32,3.76-.7,5.61-1h.04c.47-.07,.58-.6,.4-.95Zm-7.44,.63c-2.66,.36-8,1.14-9.98-1.34-.6-.77-.91-1.4-.98-1.95-.43-2.67,4.54-2.86,6.23-2.47,1.31,.29,2.59,.77,3.85,1.23,.95,.36,1.87,.78,2.79,1.23,1.5,.71,2.95,1.49,4.44,2.23l.02,.02c.09,.05,.19,.09,.28,.14-.11,0-.19,.02-.3,.04-.26,.02-.51,.04-.77,.08-1.86,.23-3.71,.54-5.57,.79Z" style="fill:#263238;"></path></g></g></g><g><path d="M642.21,180.6s-2.9,38.43-4.57,45.88c-.71,3.16-.97,64.51-3.03,92.3-1.21,16.35-.41,75.8-1.43,97.6-.24,5.05-4,8.08-4,8.08l-48.52-.59s-5.01-2.9-4.76-7.74c1.23-23.31,9.97-91.6,10.19-97.72,.62-17.33,2.98-59.57,5.5-97.86,0,0-2.55-8.81-2.35-11.67,1.23-17.48,5.39-28.27,5.39-28.27h47.57Z" style="fill:#FF570A;"></path><g style="opacity:.1;"><path d="M642.21,180.6s-2.9,38.43-4.57,45.88c-.71,3.16-.97,64.51-3.03,92.3-1.21,16.35-.41,75.8-1.43,97.6-.24,5.05-4,8.08-4,8.08l-48.52-.59s-5.01-2.9-4.76-7.74c1.23-23.31,9.97-91.6,10.19-97.72,.62-17.33,2.98-59.57,5.5-97.86,0,0-2.55-8.81-2.35-11.67,1.23-17.48,5.39-28.27,5.39-28.27h47.57Z"></path></g></g></g><g><g><path d="M653.46,466.42c-2.68,.9-81.57,.93-84.49-.93-.54-.33,3.11-75.13,3.11-75.13l48.24,.25-1.92,49.31s29.39,13.15,32.39,15.53c2.97,2.37,5.35,10.09,2.66,10.98Z" style="fill:#eb9481;"></path><path d="M568.97,465.49c2.92,1.85,81.81,1.83,84.49,.93,2.68-.89,.32-8.6-2.67-10.98-2.99-2.38-32.38-15.53-32.38-15.53l.29-7.43h-48.6c-.75,17.06-1.38,32.85-1.13,33Z" style="fill:#ebebeb;"></path><g><path d="M653.98,466.64c-2.74,.92-82.25,1.61-85.25-.28-1.14-.71-.57-13.4,.48-26.8h49.84s29.11,13.42,32.18,15.84c3.05,2.42,5.49,10.31,2.75,11.23Z" style="fill:#FF570A;"></path><g><g><path d="M652.85,463.5c-13.17-.3-66.3-.29-79.34,.41-.11,0-.11,.08,0,.08,13.04,.59,66.18,.14,79.34-.28,.28,0,.28-.21,0-.22Z" style="fill:#263238;"></path><path d="M646.18,452.59c-3.12-.12-6.17,1.36-7.87,3.23-1.63,1.79-3.03,4.3-2.93,7.03,0,.08,.15,.08,.16,0,.74-5.15,5.42-9.69,10.65-10.09,.1,0,.11-.16,0-.16Z" style="fill:#263238;"></path><path d="M623.18,440.88c-5.27-.07-11.38,1.8-14.65,6.12-.13,.17,.11,.34,.27,.26,4.76-2.46,9.29-4.3,14.47-5.73,.37-.1,.29-.64-.09-.65Z" style="fill:#263238;"></path><path d="M627.25,442.46c-5.27-.07-11.38,1.8-14.65,6.12-.13,.17,.11,.34,.27,.26,4.76-2.46,9.29-4.3,14.47-5.73,.37-.1,.29-.64-.09-.65Z" style="fill:#263238;"></path><path d="M631.33,444.04c-5.27-.07-11.38,1.8-14.65,6.12-.13,.17,.11,.34,.27,.26,4.76-2.46,9.29-4.3,14.47-5.73,.36-.1,.29-.64-.09-.65Z" style="fill:#263238;"></path><path d="M635.4,445.62c-5.27-.07-11.38,1.8-14.65,6.12-.13,.17,.11,.34,.27,.26,4.76-2.46,9.29-4.3,14.47-5.73,.37-.1,.29-.64-.09-.65Z" style="fill:#263238;"></path><path d="M576.84,451.4c-5.91,.03-5.88,9.21,.04,9.19,5.91-.03,5.88-9.21-.04-9.19Z" style="fill:#fff;"></path></g><path d="M628.87,426.81c-2.68-2.21-6.04-.04-7.67,2.25-2.09,2.94-3.67,6.79-4.38,10.51-.12,.53-.2,1.06-.27,1.57-.02,.23-.05,.46-.08,.67,.02,.02,0,.02,0,.02v.18c-.01,.19-.03,.37-.05,.55,0,.11,.09,.16,.18,.14,.05,.25,.27,.47,.53,.51,.12,.03,.26,.02,.4-.07,1.03-.71,2.12-1.43,3.2-2.14,.19-.11,.37-.23,.56-.36,2.64-1.75,5.25-3.6,7.17-6.1,1.65-2.14,2.93-5.62,.41-7.71Zm-6.45,11.2c-.87,.64-1.77,1.27-2.64,1.89-.75,.53-1.49,1.07-2.22,1.62-.1,.07-.21,.16-.3,.23-.09,.07-.19,.14-.28,.21,.03-.11,.07-.21,.1-.32t.02-.04c.24-.69,.48-1.36,.7-2.05,.64-1.84,1.29-3.66,2.14-5.42,.57-1.2,1.18-2.44,1.91-3.56,1.15-1.74,6.32-6.15,6.85-.41,.29,3.15-4.12,6.27-6.27,7.84Z" style="fill:#263238;"></path><path d="M617.56,442.24c.07-.05,.09-.14,.02-.23-.11-.1-.21-.19-.32-.26-.04-.07-.09-.1-.12-.12-.02-.02-.02-.04-.04-.02-.18-.19-.35-.33-.55-.47-.67-.58-1.4-1.1-2.14-1.57-2.92-1.93-6.37-3.4-9.59-4.02-2.77-.54-6.69,.22-7.1,3.65-.02,.12-.02,.25-.01,.37-.12,3.01,3.07,4.55,5.64,4.95,2.7,.4,5.46,.11,8.18-.33,1.88-.32,3.76-.7,5.61-1h.04c.47-.07,.58-.6,.4-.95Zm-7.44,.63c-2.66,.36-8,1.14-9.98-1.34-.6-.77-.91-1.4-.98-1.95-.43-2.67,4.54-2.86,6.23-2.47,1.31,.29,2.59,.77,3.85,1.23,.95,.36,1.87,.78,2.79,1.23,1.5,.71,2.95,1.49,4.44,2.23l.02,.02c.09,.05,.19,.09,.28,.14-.11,0-.19,.02-.3,.04-.26,.02-.51,.04-.77,.08-1.86,.23-3.71,.54-5.57,.79Z" style="fill:#263238;"></path></g></g></g><g><path d="M642.21,180.6s1.46,24.04-2.7,34.8c-1.63,4.22-9.23,13.04-9.23,13.04,0,0-1.79,62.56-3.84,90.34-1.16,15.63-2.69,70.68-3.32,94.53-.18,6.87-4.12,11.15-4.12,11.15l-49.56-.64s-3.82-4-3.3-10.44c2.07-25.45,7.22-89.07,7.43-94.97,.62-17.33,.68-52.04,3.21-90.32,0,0-2.95-11.02-2.74-13.88,1.23-17.48,5.9-33.6,5.9-33.6h62.27Z" style="fill:#FF570A;"></path><g><path d="M583.88,227.07l.02,.07v.08c-.04,.97-3.88,97.48-4.14,102.59-.1,1.93-.91,12.71-1.94,26.37-1.64,21.86-3.89,51.81-3.89,54.79,0,6.47,1.15,10.53,2.27,12.93l-1.13-.02c-1.1-2.56-2.14-6.65-2.14-12.91,0-3.02,2.16-31.77,3.9-54.87,.98-13.11,1.83-24.43,1.93-26.34,.26-5.04,4.01-99.34,4.14-102.51-.27-1.01-2.74-10.56-3.08-15.14-.28-3.66,3.76-22.42,5.79-31.51h1.02c-1.99,8.96-6.08,27.93-5.81,31.44,.35,4.64,3.04,14.92,3.06,15.03Z" style="fill:#fff;"></path><path d="M588.03,227.07l.02,.07v.08c-.05,.97-3.89,97.48-4.15,102.59-.09,1.93-.91,12.76-1.94,26.47-1.64,21.82-3.89,51.71-3.89,54.69,0,6.52,1.17,10.58,2.29,12.98h-1.12c-1.11-2.57-2.17-6.67-2.17-12.98,0-3.01,2.16-31.71,3.89-54.77,.99-13.16,1.85-24.52,1.95-26.44,.25-5.04,4.01-99.34,4.13-102.51-.26-1.01-2.73-10.56-3.08-15.14-.28-3.66,3.77-22.42,5.79-31.51h1.03c-1.99,8.96-6.09,27.93-5.82,31.44,.35,4.64,3.04,14.92,3.07,15.03Z" style="fill:#fff;"></path></g><path d="M596.76,206.93c3.25-.01,14.06-.37,17.81-4.46,3.71-4.05,6-13.24,6.68-16.27,.03-.15,.26-.1,.26,.04,.1,3.4-.39,6.85-1.31,10.13-.78,2.79-1.84,5.91-4.14,7.87-2.42,2.06-5.72,2.79-8.82,3.16-3.5,.42-6.99,.32-10.48-.14-.22-.03-.22-.34,0-.34Z" style="opacity:.1;"></path></g></g></g><g><g><path d="M644.93,180.58l-71.52,11.38c-.62-.29,4.16-23.61,1.96-37.41-3.38-21.3-15.82-38.5-12.29-48.52,2.25-6.4,10.43-9.9,17.98-7.78,8.47,2.38,35.37,15.76,47.19,35.18,13.47,22.14,16.89,46.46,16.69,47.16Z" style="fill:#37474f;"></path><path d="M581.86,98.49l-15.35,2.62c.48-.4,.98-.77,1.51-1.1l11.9-2.04h.01c.37,.08,.75,.17,1.12,.27,.25,.07,.52,.15,.81,.25Zm10.85,4.71l-30.17,5.16c-.03,.28-.05,.56-.06,.85l31.44-5.38c-.41-.21-.81-.43-1.21-.63Zm9.87,5.72l-39.36,6.73c.06,.27,.12,.53,.2,.81l40.19-6.88c-.34-.23-.69-.45-1.03-.66Zm8.42,5.97l-45.61,7.79c.09,.26,.18,.53,.28,.8l46.21-7.9c-.29-.24-.59-.47-.88-.69Zm7.14,6.19l-50.15,8.57c.1,.26,.2,.53,.3,.79l50.58-8.65c-.24-.24-.49-.48-.73-.71Zm5.89,6.4l-53.47,9.14c.1,.26,.19,.52,.28,.79l53.79-9.19c-.2-.25-.4-.5-.6-.74Zm4.62,6.62l-55.8,9.54c.08,.27,.16,.53,.24,.8l56.01-9.58c-.15-.25-.3-.51-.45-.76Zm3.73,6.77l-57.72,9.87c.05,.27,.11,.54,.16,.81l57.95-9.9-.39-.78Zm3.22,6.86l-59.84,10.23c.02,.27,.04,.55,.06,.83l60.11-10.27c-.11-.26-.22-.52-.33-.79Zm2.76,6.94l-62.45,10.67c0,.28-.01,.56-.02,.85l62.76-10.73c-.1-.26-.19-.52-.29-.79Zm2.36,7.01l-65.22,11.14c-.02,.29-.04,.58-.07,.86l65.53-11.2c-.07-.26-.15-.53-.24-.8Zm1.98,7.07l-67.97,11.62c-.03,.29-.07,.58-.1,.86l68.27-11.67c-.06-.26-.13-.53-.2-.81Zm1.58,7.14l-70.53,12.05c-.04,.31-.08,.6-.11,.87l70.79-12.1c-.05-.26-.1-.53-.15-.82Z" style="fill:#263238;"></path></g><g><path d="M573.14,116.88c-1.16,9.29-8.63,38.53-8.59,41.1,.02,1.44,11.36,9.94,11.55,10.92,.8,4.01-.99,35.76-5.15,34.12-5.48-2.17-36.23-22.42-36.75-34-.52-11.58,24.61-56.01,29.3-62.06,9.8-12.65,10.6,2.28,9.64,9.92Z" style="fill:#eb9481;"></path><g><path d="M589,205.26c2.41-3.21-2.76-4.21-2.76-4.21,0,0,7.78-.36,8.97-4.63,1.14-4.12-5.13-5.1-5.58-5.18,.41-.02,7.55-.54,8.31-4.95,.79-4.59-5.68-4.49-6.1-4.49,.38-.14,5.39-2.12,5.21-5.61-.32-5.99-15.14-1.98-19.45-4.22l-1.7-6.13s.02,2-2.28,3.6c-2.85,1.99-5.52,3.49-6.28,5.45-1.24,3.23,1.24,5.1,1.24,5.1,0,0-4.16,.92-4.87,4.38-.36,1.78,2.16,3.93,2.16,3.93,0,0-3.3,.87-3.74,3.99-.36,2.48,2.22,4.26,2.22,4.26,0,0-2.78,2.31-2.32,4.97,.91,5.36,21.78,10.61,26.94,3.74Z" style="fill:#eb9481;"></path><g><path d="M564.74,196.9c-.07-.02-.11,.07-.05,.1,6.44,3.4,14.57,5.17,21.82,4.14,.24-.03,.29-.44,.02-.45-7.68-.37-14.47-1.31-21.79-3.79Z" style="fill:#263238;"></path><path d="M565.77,188.32c-.08-.03-.13,.1-.05,.15,6.66,3.47,15.86,5.2,24.09,3.03,.28-.07,.46-.42,.13-.36-5.58,1.03-17.59-.55-24.17-2.81Z" style="fill:#263238;"></path><path d="M592.36,181.46c-7.97,1.78-15.7,.82-23.51-1.3-.1-.03-.13,.12-.05,.17,3.53,2.08,8.65,2.91,12.69,3.23,3.87,.3,7.41-.21,10.94-1.81,.14-.06,.11-.32-.06-.28Z" style="fill:#263238;"></path></g><path d="M563.85,196.5c-1.62-1.03-2.7-2.45-2.55-4.5,.07-.93,.5-1.79,1.16-2.45,.82-.82,2.23-1.11,2.9-1.31-1.56-1.31-2.66-3.34-1.96-5.39,.32-.95,1.02-1.53,1.89-2.04,.47-.28,2.54-.94,3.17-.96-1.21-.69-2.05-2-2.19-3.39-.17-1.61,.61-2.99,1.75-4.07,1.32-1.24,3-1.97,4.55-2.87,.81-.46,1.6-.92,2.29-1.57,.62-.58,.65-.72,1.02-2.03,.05-.18,.09-.02,.06,.13-.19,.78-.34,1.81-1.61,3.04-1.26,1.21-2.83,1.98-4.23,3.01-1.22,.9-2.3,2.07-2.73,3.56-.44,1.54,.15,3.12,1.3,4.18,.07,.05,.06,.16-.06,.19-.7,.18-2.29,.99-2.67,1.28-.65,.51-1.29,1.1-1.53,1.89-.55,1.78,.2,3.78,1.5,5.11,.05,.05-1.64,.62-2.66,1.77-.48,.55-.75,1.29-.85,2.01-.23,1.69,.6,3.46,2.03,4.39,.02,.02,.03,.04,.04,.06h0s0,.03,0,.04c0,.02,0,.04-.02,.07h0s-2.15,1.51-2.35,3.79c0,.03-.1-.05-.1-.08-.47-2.94,1.75-3.75,1.87-3.84Z" style="fill:#263238;"></path></g><g><path d="M536.46,150.71l31.96,.44s8.72-31.01,7.95-43.46c-.59-9.5-5.96-9.88-10.21-5.21-14.17,15.58-29.71,48.23-29.71,48.23Z" style="fill:#37474f;"></path><path d="M568.11,144.85c-4.92-.42-18.29-1.16-27.04-.51-.05,0-.06,.21,0,.21,7.36,.56,22.1,.61,27.03,.6,.09,0,.1-.29,.01-.3Z" style="fill:#263238;"></path><path d="M568.82,151.34c.72-2.5,3.25-11.39,3.78-13.94,.3-.68,.59-1.37,.85-2.07,.32-.88,.61-1.84,.75-2.77,0-.05-.05-.06-.07-.02-.15,.44-.27,.89-.41,1.33-.15,.44-.31,.88-.45,1.32-.15,.45-.32,.9-.5,1.34,.52-2.5,.97-5.02,1.31-7.55,0-.07-.09-.1-.11-.03-.78,2.61-1.43,5.26-2.01,7.93-.56,2.6-3.21,11.51-3.6,14.14-.45,0-1.99-.04-2.44-.01-.11,0-.15,.18-.03,.2,.5,.12,2.1,.22,2.61,.3,.14,.02,.27-.04,.31-.18Z" style="fill:#263238;"></path></g></g><g><g><path d="M583.45,106.96c-2.72,2.55-13,2.36-17.83-.85-.33-.22-5.19-11.24-6.49-13.71-.27-.51,17.5-4.36,17.5-4.36,0,0,1.19,5.99,3.48,10.29,.2,.36,.41,.67,.64,.96,.03,.04,.07,.09,.11,.16,1.33,1.76,5.5,4.79,2.58,7.52Z" style="fill:#eb9481;"></path><path d="M559.72,93.58c4.94,3.83,12.67,7.96,20.1,4.16-2.08-4.24-3.18-9.7-3.18-9.7,0,0-17.77,3.85-17.5,4.37,.15,.28,.35,.69,.58,1.17Z" style="fill:#263238;"></path></g><g><path d="M554.67,62.05s3.45-1.57,5.38-1.02c1.67,.48,4.89,2.84,6.15,3.65,2.78,1.78,2.7,3.27,2.7,3.27,0,0-7.82-4.29-14.22-5.9Z" style="fill:#dbdbdb;"></path><path d="M541.91,84.29c3.91,5.19,20.36,13.09,26.2,11.87,8.46-1.77,15.08-9.93,11.75-18.45-3.23-8.26-24.85-18.18-30.7-16.33-8.61,2.73-13.03,15.23-7.25,22.9Z" style="fill:#eb9481;"></path><path d="M555.02,93.75c-1.77,.02-8.29-1.62-10.34-3.23-2.2-1.72-2.25-5.63-2.25-5.63,0,0,1.61,.69,2.87,.27,1.93-.64,4.18-2.81,5.53-2.46,2.21,.59,11.17,8.21,9.82,9.6-1.35,1.39-2.6,1.4-5.62,1.44Z" style="fill:#dbdbdb;"></path><path d="M557.88,88.19c1.68,.72,6.28,1.17,9.47-3.74,2.58-3.97,1.31-7.67,1.31-7.67l1.53-2.11s1.93-.4,2.48-2.16c.54-1.76-1.25-3.24-3.04-4.51,0,0,5.4,2.87,7.24,3.78s6.4,3.11,7.59,7.64c1.38,5.27-2.49,14.06-9.34,17.5-6.85,3.44-13.72-1.59-13.72-1.59l-3.51-7.13Z" style="fill:#dbdbdb;"></path><g style="opacity:.2;"><path d="M555.47,71.13c.32-.57,.67-1.13,.92-1.74,.25-.62,.39-1.27,.66-1.88,.5-1.16,1.3-2.09,2.15-3.05,.07-.08,.12-.04,.05,.04-.84,1-1.62,2.08-2.03,3.35-.35,1.07-.69,2.02-1.28,2.98-1.31,2.12-2.35,4.35-2.33,6.87,0,.02-.02,.02-.02,0-.07-2.3,.75-4.58,1.89-6.59Z"></path><path d="M554,70.51c.31-.54,.63-1.07,.87-1.65,.24-.58,.37-1.2,.62-1.78,.48-1.1,1.23-1.98,2.04-2.89,.07-.08,.11-.04,.05,.04-.8,.95-1.53,1.97-1.92,3.18-.33,1.02-.65,1.92-1.21,2.83-1.24,2.01-2.23,4.13-2.21,6.51,0,.02-.02,.02-.02,0-.07-2.18,.71-4.34,1.79-6.25Z"></path></g><g><path d="M556.28,88.72s-7.08,.01-7.4,3c-.32,2.99,8.33,5.3,11.04,3.42,2.71-1.88,1.02-4.42,1.02-4.42l-4.66-1.99Z" style="fill:#eb9481;"></path><path d="M551.38,92.32s.02,.09,.06,.06c1.96-1.28,4.26-1.06,6.43-.53-1.03,.07-1.89,.54-1.87,1.86,0,.07,.1,.08,.13,.02,.35-.84,.84-1.28,1.77-1.36,.66-.06,1.34,.07,2,.15,.22,.03,.33-.32,.11-.39-.02,0-.03,0-.05-.01-2.24-1.63-6.64-2.07-8.57,.2Z" style="fill:#263238;"></path></g><g><g><path d="M561.29,76.49s0,.11,.05,.13c1.1,.54,2.27,1.35,2.11,2.53,0,.04,.05,.06,.07,.02,.47-1.29-1.1-2.35-2.23-2.68Z" style="fill:#263238;"></path><path d="M559.64,76.85c-1.06,1.67,2.36,3.68,3.35,2.13,.97-1.53-2.46-3.53-3.35-2.13Z" style="fill:#263238;"></path></g><g><path d="M565.05,70.45s.1-.05,.14-.03c1.04,.65,2.34,1.23,3.26,.47,.03-.02,.08,.01,.05,.04-.85,1.08-2.57,.3-3.45-.49Z" style="fill:#263238;"></path><path d="M564.5,68.85c.87-1.78,4.37,.08,3.57,1.74-.79,1.63-4.29-.24-3.57-1.74Z" style="fill:#263238;"></path></g><path d="M557.28,77.29c.16-.54,.21-1.05,.31-1.6,.11-.62,.26-1.09,0-1.69-.14-.32-.62-.5-.95-.4-.76,.25-1.08,.97-1.24,1.7-.18,.8-.11,1.46,.25,2.19,.35,.71,1.42,.5,1.62-.2Z" style="fill:#dbdbdb;"></path><path d="M563.54,66.52c-.35,.43-.75,.77-1.15,1.15-.45,.44-.76,.83-1.4,.95-.34,.07-.76-.23-.86-.56-.22-.76,.19-1.44,.71-1.99,.56-.6,1.14-.91,1.95-1.02,.78-.11,1.21,.89,.75,1.46Z" style="fill:#dbdbdb;"></path><path d="M570.56,83.23c.4-.11,.89-.16,1.14-.53,.25-.35,.33-.88,.4-1.3,0-.04,.06-.05,.08-.01,.25,.51,.16,1.24-.21,1.68-.36,.43-.92,.43-1.43,.29-.07-.02-.05-.11,.01-.13Z" style="fill:#263238;"></path><path d="M568.04,80.26c1.27-.06,2.28-.63,3.02-1.47,.33-.37,.6-.81,.82-1.27,.05-.09,.09-.18,.12-.27,.04-.08,.07-.16,.1-.25,.05-.13,0-.26-.11-.35h0s-.07-.04-.11-.06h0l-.09-.06c-.8-.5-2.09-1.15-2.09-1.15,.32-.21,1.9-1.33,1.46-1.56-3.66-1.85-7.72-3.92-11.76-4.99-.13-.04-.21,.15-.09,.21,3.44,1.92,7.2,3.22,10.69,5.1-.47,.38-1.27,.97-1.51,1.4-.03,.14,2.51,1.21,2.86,1.46,0,0,.02,0,.03,.03-.63,1.48-1.65,2.27-3.35,3.06-.11,.04-.08,.17,.04,.16Z" style="fill:#263238;"></path></g></g></g></g></g></g><g id="freepik--Character_2--inject-6"><g><g><path d="M365.99,77s-9.65-5.23-19.63,3.76c-11.87,10.69-8.04,47.22-8.79,50.49-.74,3.27-2.15,4.05-2.62,6.98-.47,2.93,1.95,4.83,2.25,5.87,.29,1.04-2.61,6.4-2.61,6.4,0,0,16.09,4.19,26.17,2.2,10.09-2,21.4-8.95,21.4-8.95,0,0-2.3-3.23-2.3-4.76,0-1.53,1.78-3.58,1.63-6.36-.15-2.78-4.38-6.16-4.81-7.66s1.68-29.17-.77-38.83c-2.44-9.66-9.93-9.13-9.93-9.13Z" style="fill:#263238;"></path><path d="M382.67,142.95c-.86-1.05-1.7-2.14-2.25-3.42-.12-.32-.24-.68-.19-1.06,.49-2.23,2.44-4.22,2.06-6.61-.5-1.83-2.29-3.34-3.5-4.76-.68-.81-1.49-1.65-1.67-2.78-.03-.4-.02-.72-.02-1.07,.35-11.5,1.17-23.13-.74-34.53-.5-2.65-1.17-5.34-2.67-7.62,1.67,2.18,2.45,4.9,3.09,7.53,2.37,11.38,1.63,23.12,1.12,34.64,0,.33-.02,.69,0,.97,.15,.91,.86,1.66,1.45,2.39,1.26,1.56,3.03,3.09,3.51,5.13,.36,2.56-1.66,4.49-2.34,6.76-.06,.3,.02,.62,.13,.94,.47,1.26,1.26,2.4,2.03,3.5h0Z" style="fill:#263238;"></path><path d="M333.79,149.06c.65-1.42,1.58-3.2,2.12-4.63v-.05c-.07-.21-.26-.4-.4-.61-1.28-1.58-2.36-3.52-2.15-5.62,.15-2.47,1.84-4.56,2.65-6.74,.59-1.5,.48-3.04,.44-4.62-.4-13.47-.67-36.31,9.65-46.18,1.18-1.11,2.55-2,4.02-2.64-1.43,.72-2.74,1.67-3.86,2.8-9.71,10.17-9.23,32.55-9.05,45.99,.05,1.62,.11,3.36-.55,4.88-.91,2.29-2.55,4.09-2.79,6.54-.18,1.56,.38,3.1,1.21,4.41,.31,.52,.69,.98,1.01,1.5,.05,.08,.1,.17,.09,.28-.64,1.63-1.58,3.12-2.39,4.66h0Z" style="fill:#263238;"></path></g><g><path d="M372.58,132.61c-1.93,8.31-12.37,33.34-12.58,35.68-.12,1.31,15.08,10.24,15.16,11.16,.35,3.71-5.56,34.18-9.17,32.3-4.76-2.48-32.65-26.47-32.03-37.01,.62-10.54,25.95-44.26,30.76-49.3,10.07-10.54,9.44,.34,7.85,7.18Z" style="fill:#ffc4c0;"></path><path d="M365.49,124.65l.14,28.04c2.87-7.59,5.97-15.93,6.94-20.08,1.55-6.65,2.19-17.15-7.08-7.96Z" style="opacity:.1;"></path></g><g><g><g><path d="M283.34,466.86c2.75,.86,70.29,1.16,73.21-.8,1.12-.72,1.52-12.11,1.61-25.89,0-.14,0-.29,0-.43,.02-2.84,10.28-49.41,10.28-49.41l-47.13-.09-13.52,50.11,.04,.85s-19.05,11.94-22.04,14.43c-2.97,2.48-5.2,10.38-2.45,11.22Z" style="fill:#ffc4c0;"></path><path d="M283.34,466.85c2.74,.86,70.29,1.17,73.22-.79,1.12-.73,1.52-12.11,1.61-25.88,0-.15,0-.29-.01-.44,0-.69,.6-3.89,1.5-8.36h-49.45l-2.42,8.97,.03,.85s-19.04,11.95-22.04,14.44c-2.97,2.48-5.19,10.38-2.45,11.22Z" style="fill:#ebebeb;"></path><g><path d="M283.34,466.86c2.75,.85,70.29,1.15,73.21-.8,1.11-.71,1.52-11.9,1.61-25.51h-50.36l.03,.65s-19.05,11.94-22.05,14.43c-2.97,2.48-5.2,10.38-2.45,11.23Z" style="fill:#FF570A;"></path><g><path d="M286.15,464.72c11.27-.54,56.77-1.54,67.95-1.13,.09,0,.09,.07,0,.08-11.16,.81-56.66,1.4-67.94,1.26-.24,0-.24-.19,0-.2Z" style="fill:#263238;"></path><path d="M289.22,452.93c3.75-.75,7.69,.23,10.07,1.87,2.28,1.58,4.41,3.97,4.77,6.89,.01,.08-.16,.11-.19,.03-1.8-5.32-8.24-9.21-14.61-8.62-.13,.01-.16-.15-.03-.18Z" style="fill:#263238;"></path><path d="M310.3,442.56c4.94-.75,10.91,.21,14.54,3.84,.14,.14-.06,.34-.22,.28-4.79-1.69-9.27-2.83-14.32-3.5-.36-.05-.35-.57,0-.62Z" style="fill:#263238;"></path><path d="M306.69,444.58c4.94-.75,10.91,.21,14.54,3.84,.14,.14-.06,.34-.22,.28-4.79-1.69-9.27-2.83-14.32-3.5-.36-.05-.35-.57,0-.62Z" style="fill:#263238;"></path><path d="M303.07,446.59c4.94-.75,10.91,.21,14.54,3.84,.14,.14-.06,.34-.22,.28-4.79-1.69-9.27-2.83-14.32-3.5-.36-.05-.35-.57,0-.62Z" style="fill:#263238;"></path><path d="M299.46,448.6c4.94-.75,10.91,.21,14.54,3.84,.14,.14-.06,.34-.22,.28-4.79-1.69-9.27-2.83-14.32-3.5-.36-.05-.35-.57,0-.62Z" style="fill:#263238;"></path><path d="M348.07,451.69c5.6-.1,5.76,8.6,.15,8.7-5.6,.1-5.76-8.6-.15-8.7Z" style="fill:#263238;"></path><path d="M304.53,437.29c2.12,2.1,4.81,3.5,7.52,4.79,.2,.09,.38,.19,.57,.26,1.11,.53,2.22,1.06,3.28,1.59,.14,.07,.28,.06,.39,.02,.24-.07,.41-.31,.43-.54,.09,0,.16-.05,.15-.15-.04-.16-.08-.33-.12-.51l-.02-.17s-.02,0,0-.02c-.06-.19-.12-.4-.16-.62-.13-.47-.28-.96-.46-1.44-1.15-3.4-3.14-6.81-5.48-9.29-1.83-1.93-5.27-3.54-7.49-1.11-2.09,2.29-.44,5.39,1.39,7.19Zm-.78-4.05c-.25-5.45,5.17-1.98,6.48-.5,.83,.95,1.56,2.03,2.25,3.09,1.02,1.55,1.87,3.17,2.71,4.81,.3,.62,.61,1.22,.93,1.83t.02,.03l.14,.28c-.09-.06-.2-.11-.29-.16-.09-.06-.2-.13-.31-.18-.76-.42-1.52-.83-2.3-1.23-.9-.47-1.82-.94-2.72-1.43-2.22-1.19-6.77-3.54-6.9-6.54Z" style="fill:#263238;"></path><path d="M316.25,443.96h.03c1.77,.03,3.59,.15,5.39,.2,2.61,.06,5.24-.02,7.72-.75,2.36-.71,5.15-2.57,4.65-5.38-.01-.12-.03-.23-.06-.35-.83-3.17-4.61-3.37-7.14-2.5-2.95,1-5.99,2.83-8.48,5.02-.64,.54-1.25,1.12-1.81,1.75-.16,.16-.31,.31-.45,.51-.02-.01-.02,0-.03,.02-.03,.02-.08,.06-.1,.13-.09,.08-.18,.17-.27,.29-.06,.09-.03,.17,.04,.21-.12,.35,.04,.84,.5,.84Zm1.24-1.24c-.25,0-.49,.01-.74,.03-.1,0-.19,0-.29,0,.08-.06,.17-.11,.25-.17v-.02c1.31-.89,2.57-1.81,3.89-2.67,.8-.54,1.61-1.05,2.46-1.51,1.12-.6,2.26-1.22,3.45-1.66,1.54-.59,6.22-1.06,6.16,1.5,0,.52-.2,1.15-.67,1.95-1.53,2.59-6.65,2.54-9.19,2.55-1.78,.01-3.55-.04-5.33-.01Z" style="fill:#263238;"></path></g></g></g><g><path d="M426.55,181.51s-7.19,43.82-7.68,45.23l-7.14,3.37-24.06,89.19-24.91,108.56-51.64-.24s10.56-58.51,27.06-118.21c10.62-38.43,18.57-79.56,26.95-103.71,2.21-6.36,9.88-24.18,9.88-24.18h51.55Z" style="fill:#37474f;"></path><path d="M392.54,181.5l7.62,91.48,11.56-42.88,7.14-3.36c.49-1.42,7.68-45.23,7.68-45.23h-34.01Z" style="fill:#263238;"></path></g></g><g><g><path d="M530.14,466.86c-2.75,.86-70.29,1.16-73.21-.8-1.12-.72-1.52-12.11-1.61-25.89,0-.14,0-.29,0-.43-.02-2.84-10.28-49.41-10.28-49.41l47.13-.09,13.52,50.11-.04,.85s19.05,11.94,22.04,14.43c2.97,2.48,5.2,10.38,2.45,11.22Z" style="fill:#ffc4c0;"></path><path d="M453.81,431.38c.9,4.48,1.5,7.68,1.5,8.36v.44c.09,13.77,.49,25.15,1.61,25.88,2.93,1.96,70.46,1.66,73.22,.79,2.74-.84,.51-8.73-2.45-11.22-2.99-2.49-22.05-14.44-22.05-14.44l.04-.85-2.42-8.97h-49.46Z" style="fill:#ebebeb;"></path><g><path d="M530.14,466.86c-2.75,.85-70.29,1.15-73.21-.8-1.11-.71-1.52-11.9-1.61-25.51h50.36l-.03,.65s19.05,11.94,22.05,14.43c2.97,2.48,5.2,10.38,2.45,11.23Z" style="fill:#FF570A;"></path><g><path d="M527.33,464.72c-11.27-.54-56.77-1.54-67.95-1.13-.09,0-.09,.07,0,.08,11.16,.81,56.66,1.4,67.94,1.26,.24,0,.24-.19,0-.2Z" style="fill:#263238;"></path><path d="M524.25,452.93c-3.75-.75-7.69,.23-10.07,1.87-2.28,1.58-4.41,3.97-4.77,6.89-.01,.08,.16,.11,.19,.03,1.8-5.32,8.24-9.21,14.61-8.62,.13,.01,.16-.15,.03-.18Z" style="fill:#263238;"></path><path d="M503.18,442.56c-4.94-.75-10.91,.21-14.54,3.84-.14,.14,.06,.34,.22,.28,4.79-1.69,9.27-2.83,14.32-3.5,.36-.05,.35-.57,0-.62Z" style="fill:#263238;"></path><path d="M506.79,444.58c-4.94-.75-10.91,.21-14.54,3.84-.14,.14,.06,.34,.22,.28,4.79-1.69,9.27-2.83,14.32-3.5,.36-.05,.35-.57,0-.62Z" style="fill:#263238;"></path><path d="M510.4,446.59c-4.94-.75-10.91,.21-14.54,3.84-.14,.14,.06,.34,.22,.28,4.79-1.69,9.27-2.83,14.32-3.5,.36-.05,.35-.57,0-.62Z" style="fill:#263238;"></path><path d="M514.02,448.6c-4.94-.75-10.91,.21-14.54,3.84-.14,.14,.06,.34,.22,.28,4.79-1.69,9.27-2.83,14.32-3.5,.36-.05,.35-.57,0-.62Z" style="fill:#263238;"></path><path d="M465.41,451.69c-5.6-.1-5.76,8.6-.15,8.7,5.6,.1,5.76-8.6,.15-8.7Z" style="fill:#263238;"></path><path d="M510.34,430.1c-2.22-2.42-5.66-.82-7.49,1.11-2.34,2.49-4.33,5.9-5.48,9.29-.18,.48-.33,.97-.46,1.44-.04,.21-.11,.42-.16,.62,.01,.02,0,.02,0,.02l-.02,.17c-.04,.18-.08,.34-.12,.51-.01,.1,.06,.16,.15,.15,.02,.24,.19,.48,.43,.54,.11,.05,.25,.05,.39-.02,1.06-.53,2.17-1.06,3.28-1.59,.19-.08,.38-.17,.57-.26,2.71-1.3,5.39-2.7,7.52-4.79,1.83-1.8,3.48-4.9,1.39-7.19Zm-7.51,9.67c-.9,.49-1.82,.96-2.72,1.43-.78,.4-1.53,.81-2.3,1.23-.11,.05-.22,.12-.31,.18-.09,.06-.2,.11-.29,.16,.05-.09,.09-.19,.14-.28t.02-.03c.32-.61,.63-1.21,.93-1.83,.83-1.64,1.68-3.26,2.71-4.81,.69-1.05,1.42-2.14,2.25-3.09,1.3-1.48,6.73-4.95,6.48,.5-.14,2.99-4.68,5.35-6.9,6.54Z" style="fill:#263238;"></path><path d="M497.72,443.11c.07-.04,.1-.12,.04-.21-.09-.11-.17-.21-.27-.29-.02-.07-.07-.11-.1-.13-.01-.02-.01-.04-.03-.02-.14-.2-.29-.36-.45-.51-.56-.63-1.17-1.21-1.81-1.75-2.49-2.19-5.53-4.01-8.48-5.02-2.53-.87-6.3-.67-7.14,2.5-.03,.11-.05,.23-.06,.35-.5,2.81,2.29,4.67,4.65,5.38,2.48,.73,5.11,.81,7.72,.75,1.81-.05,3.62-.17,5.39-.21h.03c.45,0,.62-.49,.5-.84Zm-7.06-.38c-2.54,0-7.65,.03-9.19-2.55-.47-.8-.67-1.43-.67-1.95-.05-2.56,4.63-2.09,6.16-1.5,1.19,.44,2.33,1.06,3.45,1.66,.85,.46,1.66,.97,2.46,1.51,1.32,.86,2.58,1.78,3.87,2.67v.02c.09,.06,.19,.11,.26,.17-.1-.01-.18,0-.29,0-.25-.02-.48-.03-.74-.03-1.78-.03-3.55,.03-5.33,.01Z" style="fill:#263238;"></path></g></g></g><path d="M386.93,181.51s7.19,43.82,7.68,45.23l7.14,3.37,24.06,89.19,24.91,108.56,51.64-.24s-10.56-58.51-27.06-118.21c-10.62-38.43-18.57-79.56-26.95-103.71-2.21-6.36-9.88-24.18-9.88-24.18h-51.55Z" style="fill:#37474f;"></path><g><path d="M397.65,213.6c-.13-1.29-.25-2.58-.39-3.87-.24-2.36-.6-4.72-.89-7.08-.66-5.35-1.36-10.72-2.28-16.04-.02-.13-.24-.11-.23,.03,.1,2.13,.24,4.27,.43,6.39,.19,2.13,.29,4.27,.48,6.39,.38,4.22,.75,8.45,1.25,12.65,.19,1.62,1.05,4.55-1.29,4.93-1.85,.3-3.04-1.59-3.57-3.1-.99-2.88-3.07-22.36-3.59-27.01-.01-.13-.23-.1-.23,.03-.09,4.77,1.25,19.55,1.52,21.81,.25,2.11,.4,4.38,1.23,6.36,.65,1.56,1.76,2.96,3.49,3.23,.04,0,.98,8.22,1.16,8.55,.07,.13,.88,.41,.9,.28h.01c0-.12-1.16-8.74-1.18-8.76,1.36,.09,2.41-.57,2.97-1.86,.41-.94,.29-1.94,.2-2.93Z" style="fill:#263238;"></path><path d="M407.59,232.3c-10.61-5.78-16.55-7.78-20.09-8.9-.11-.03-.18,.14-.07,.18,3.43,1.31,11.31,6.22,20.04,8.95,.13,.04,.25-.16,.13-.23Z" style="fill:#263238;"></path></g></g></g><g><g><path d="M373.15,170.48l1.85,11.03h63.48s-13.03-43.9-45.96-62.99c-10.24-5.94-19.18-1.03-22.5,6.85-.84,1.99-5.7,27.37-4.31,36.61,.88,5.87,7.44,8.51,7.44,8.51Z" style="fill:#FF570A;"></path><g><path d="M390.66,160.01c-2.75,1.23-5.48,2.58-8.02,4.27-1.26,.84-2.47,1.75-3.67,2.69-.6,.47-1.21,.91-1.82,1.35-.63,.45-1.32,.91-2.05,1.16-.07,.02-.03,.14,.04,.12,.72-.2,1.41-.39,2.1-.7,.65-.29,1.27-.67,1.88-1.07,1.29-.84,2.53-1.75,3.81-2.61,2.58-1.73,5.15-3.45,7.85-4.96,.12-.07,.01-.32-.12-.26Z" style="fill:#263238;"></path><path d="M398.65,160.75c-2.44,.46-4.88,1.05-7.24,1.82-1.18,.39-2.33,.85-3.48,1.35-.55,.24-1.09,.49-1.62,.75-.59,.28-1.14,.66-1.74,.94-.06,.03-.03,.15,.04,.12,.57-.24,1.18-.37,1.77-.57,.59-.2,1.17-.41,1.76-.61,1.17-.4,2.35-.79,3.52-1.21,2.34-.83,4.68-1.63,7.06-2.37,.13-.04,.05-.25-.07-.22Z" style="fill:#263238;"></path></g><g><path d="M415.88,139.16l-9.08,16.36-2.58-6.25,7.99-14.42c1.28,1.42,2.5,2.86,3.67,4.31Z" style="fill:#37474f;"></path><path d="M421.6,146.94l-10.51,18.95-2.58-6.26,9.69-17.47c1.19,1.59,2.32,3.18,3.4,4.78Z" style="fill:#37474f;"></path></g></g><g><g><path d="M381.16,118.12c.33,1.77-.75,10.77-5.87,12.51-2.63,.89-6.12-8.18-6.12-8.18l-.38-.62-5.33-8.69,9.89-12.37s7.71,16.84,7.8,17.35Z" style="fill:#ffc4c0;"></path><path d="M376.22,107.06c-.39,7.98-5.11,12.85-7.44,14.76l-5.33-8.69,9.9-12.37s1.32,2.88,2.87,6.29Z" style="fill:#263238;"></path></g><g><path d="M344.89,103.74c4.84,17.22,15.7,16.26,19.41,15.22,3.37-.95,14.72-4.62,11.69-22.24-3.03-17.63-12.57-20.82-20.39-19.05-7.82,1.77-15.55,8.86-10.71,26.08Z" style="fill:#ffc4c0;"></path><g><path d="M347.96,98.31c.38-.18,.7-.42,1.06-.64,.4-.25,.75-.4,.96-.85,.11-.24-.03-.6-.25-.73-.52-.3-1.09-.12-1.59,.16-.54,.3-.88,.67-1.11,1.25-.22,.56,.43,1.06,.94,.81Z" style="fill:#263238;"></path><path d="M359.53,94.34c-.41,.09-.81,.11-1.23,.15-.47,.05-.84,.14-1.28-.08-.24-.12-.35-.49-.25-.73,.22-.56,.79-.77,1.35-.86,.61-.1,1.11-.01,1.64,.3,.52,.3,.31,1.1-.23,1.22Z" style="fill:#263238;"></path><g><g><path d="M358.75,99.39s.11,.03,.12,.07c.33,1.17,.91,2.46,2.09,2.51,.04,0,.05,.06,.01,.07-1.34,.23-2.09-1.49-2.22-2.65Z" style="fill:#263238;"></path><path d="M359.4,97.84c1.82-.74,3.16,2.96,1.48,3.64-1.66,.67-3-3.02-1.48-3.64Z" style="fill:#263238;"></path></g><path d="M360.19,97.77c.4,.09,.85,.35,1.25,.24,.47-.12,.67-.63,.83-1.11,.02-.05,.06-.03,.08,.02,.27,.7,.26,1.53-.46,1.91-.66,.35-1.38-.1-1.82-.75-.08-.12-.04-.36,.12-.32Z" style="fill:#263238;"></path></g><g><g><path d="M351.64,101.76s-.07,.09-.05,.13c.46,1.13,.8,2.5-.09,3.26-.03,.02,0,.08,.03,.06,1.19-.65,.73-2.46,.11-3.45Z" style="fill:#263238;"></path><path d="M350.18,100.94c-1.89,.54-.66,4.28,1.09,3.78,1.72-.5,.5-4.23-1.09-3.78Z" style="fill:#263238;"></path></g><path d="M349.48,101.44c-.23,.29-.4,.75-.75,.89-.4,.16-.83-.14-1.22-.45-.04-.03-.06,0-.04,.06,.21,.72,.69,1.39,1.43,1.3,.67-.08,.92-.84,.86-1.61-.01-.14-.18-.31-.27-.19Z" style="fill:#263238;"></path></g><path d="M361.47,108.61c-.09,.4-.12,.89-.47,1.16-.34,.26-.86,.37-1.27,.45-.04,0-.05,.06-.01,.08,.52,.22,1.24,.11,1.66-.28,.41-.38,.38-.93,.22-1.42-.02-.07-.12-.04-.13,.02Z" style="fill:#263238;"></path><path d="M354.82,106.39s.36,1.8,.65,2.61c.03,.08,2.72-.26,3.78-2.79,.04-.09-.1-.15-.16-.07-.79,1.16-1.9,1.77-3.16,2.24-.14-.2-.52-3.1-.65-3.07-.46,.12-1.22,.72-1.69,1.06-.87-3.73-1.13-7.56-2.04-11.26-.04-.13-.23-.11-.23,.02-.01,4.04,.89,8.35,1.68,12.22,.09,.48,1.55-.71,1.82-.96Z" style="fill:#263238;"></path><g><path d="M356.54,108.52s1.05,.69,2.14,.67c.4,0,.8-.09,1.16-.35,.74-.52,.48-1.28,.09-1.87-.32-.49-.73-.85-.73-.85,0,0-.78,1.57-2.66,2.4Z" style="fill:#263238;"></path><path d="M358.68,109.2c.4,0,.8-.09,1.16-.35,.74-.52,.48-1.28,.09-1.87-.85,.42-1.5,1.34-1.25,2.22Z" style="fill:#ff9bbc;"></path></g></g><g><path d="M374.88,96.6c-2.95,1.62-6.57-5.17-6.57-5.17,0,0-14.11,3.01-19.51-7.31,0,0,.46,7.76-5.23,13.62,0,0-4.23-11.98,4.22-17.99,0,0,9.93-8.84,20.12-2.22,10.19,6.62,8.94,17.98,6.97,19.07Z" style="fill:#263238;"></path><path d="M348.44,83.35c.48,1.71,1.39,3.3,2.54,4.68,1.16,1.38,2.59,2.56,4.22,3.36,.39,.23,.83,.36,1.25,.54l.63,.25c.22,.07,.44,.12,.65,.18,.44,.11,.87,.23,1.32,.32,.45,.06,.89,.11,1.34,.16,.22,.02,.45,.05,.67,.07h.67l1.34-.02c.89-.09,1.77-.23,2.64-.39-.89-.03-1.77,.03-2.64,0l-1.31-.1-.65-.05c-.21-.03-.43-.08-.64-.12-.43-.08-.85-.16-1.28-.23-.42-.1-.83-.24-1.24-.36l-.62-.18-.59-.25c-.39-.18-.81-.3-1.17-.52-1.55-.74-2.91-1.83-4.13-3.05-.61-.62-1.15-1.29-1.65-2.01-.51-.71-.96-1.47-1.35-2.26Z" style="fill:#263238;"></path></g><g><g><path d="M372.67,96.76s1.68-6.6,4.54-6.19c2.86,.41,2.97,9.02,.58,11.1-2.39,2.08-4.37-.09-4.37-.09l-.76-4.82Z" style="fill:#ffc4c0;"></path><path d="M377.18,93.04s.08,.04,.04,.07c-1.65,1.53-2,3.72-2.01,5.87,.31-.94,.95-1.63,2.18-1.31,.06,.02,.05,.12-.01,.12-.86,.13-1.39,.49-1.69,1.33-.21,.6-.26,1.27-.33,1.9-.03,.21-.38,.23-.38,0,0-.02,0-.03,0-.05-.99-2.47-.37-6.68,2.21-7.94Z" style="fill:#263238;"></path></g><g><path d="M377.24,101.17c.04,.42-.27,.8-.69,.84-.42,.04-.8-.27-.84-.69-.04-.42,.27-.8,.69-.84,.42-.04,.8,.27,.84,.69Z" style="fill:#455a64;"></path><path d="M376.84,101.21c.02,.2-.13,.38-.33,.4-.2,.02-.38-.13-.4-.33-.02-.2,.13-.38,.33-.4,.2-.02,.38,.13,.4,.33Z" style="fill:#263238;"></path></g><path d="M378.17,99.82c.03,.3-.19,.56-.49,.59-.3,.03-.56-.19-.59-.49-.03-.3,.19-.56,.49-.59,.3-.03,.56,.19,.59,.49Z" style="fill:#455a64;"></path></g></g></g></g><g><path d="M383.93,119.05c4.85-5.3,24.3,10.88,20.09,15.82-4.96,5.82-24.28-11.24-20.09-15.82Z" style="fill:#ffc4c0;"></path><path d="M397.17,123.9c4.4-15.91,8.83-50.75,1.9-60.53-4.42-6.24-48.39-16.18-62.81-17.34-4.92-.4-1.36,28.49,3.85,29.27,9.5,1.43,35.8,5.92,36.89,9.04,.97,2.78,3.2,11.14,4.21,26.1,1.33,19.76,12.88,24.61,15.96,13.46Z" style="fill:#ffc4c0;"></path><path d="M394.52,118.32s-.6,6.01,.14,8.13c.74,2.12,1.61,4.93,1.61,4.93" style="fill:#263238;"></path><g><path d="M335.46,75.72c6.04,1.04,15.63-2.44,15.63-2.44l-6.45-25.38s-21.84-5.26-33.37-8.32c-8.61-2.28-17.53-5.19-18.52-4.78-1.91,.79-1.63,4.23,3.52,7.62,5.14,3.39,16.32,8.26,16.91,8.73,.07,.06,.24,.26,.49,.58h0c.12,.32-1.29,8.96,1.5,11.76,2.84,2.86,19.17,12.28,20.29,12.23Z" style="fill:#ffc4c0;"></path><g><path d="M324.93,53.48s-10.48-10.74-13.55-11.32c-3.07-.58-20.95-6.89-22.88-6.14s-1.62,4.23,3.52,7.62,16.32,8.26,16.92,8.73c.6,.47,8.17,11.3,9.17,12.09,1,.79,6.83-10.98,6.83-10.98Z" style="fill:#ffc4c0;"></path><path d="M319.88,46.59c-1.38-.89-2.8-1.73-4.21-2.57-.71-.41-1.43-.81-2.16-1.2-.36-.19-.73-.39-1.1-.57-.18-.09-.38-.18-.57-.27-.21-.08-.44-.16-.62-.21-3.12-.97-6.27-1.93-9.41-2.88-3.16-.93-6.29-1.86-9.48-2.71-.82-.19-1.66-.32-2.51-.31-.43,0-.86,.05-1.29,.18-.42,.13-.85,.35-1.13,.74-.28,.39-.34,.89-.26,1.32,.08,.43,.25,.83,.46,1.19,.41,.73,.97,1.35,1.55,1.93-.51-.64-1-1.31-1.34-2.04-.17-.36-.3-.75-.34-1.13-.04-.38,.05-.75,.27-1.02,.46-.54,1.31-.65,2.08-.63,.79,.03,1.58,.19,2.35,.41,3.11,.99,6.26,1.96,9.4,2.9,3.15,.92,6.29,1.86,9.49,2.68,.74,.16,1.48,.56,2.22,.89,.74,.35,1.47,.72,2.2,1.09l4.41,2.2Z" style="fill:#263238;"></path></g><g><path d="M325.02,56.87s-11.54-11.72-14.6-12.31c-3.07-.58-20.95-6.89-22.88-6.14-1.93,.75-1.62,4.23,3.52,7.62,5.14,3.39,16.32,8.26,16.92,8.73s8.99,10.17,9.99,10.96c1,.79,7.05-8.86,7.05-8.86Z" style="fill:#ffc4c0;"></path><path d="M320.88,49.5c-1.74-1.02-3.52-1.97-5.3-2.92-.9-.46-1.8-.91-2.71-1.35-.46-.22-.92-.43-1.39-.63-.46-.2-.99-.38-1.46-.51-3.86-1.15-7.72-2.29-11.6-3.4l-5.82-1.63-1.46-.39c-.48-.13-.99-.27-1.52-.34-.52-.07-1.06-.1-1.6-.04-.53,.07-1.11,.22-1.57,.65-.23,.21-.39,.51-.45,.82-.07,.31-.03,.6,.03,.88,.13,.55,.38,1.02,.67,1.46,.58,.87,1.27,1.62,2.01,2.33,1.48,1.41,3.22,2.51,5.06,3.32-1.76-.98-3.42-2.14-4.77-3.62-.69-.72-1.34-1.48-1.84-2.32-.25-.41-.45-.86-.54-1.29-.09-.44,0-.84,.29-1.09,.29-.26,.74-.38,1.19-.42,.46-.03,.94,0,1.41,.07,.93,.16,1.91,.5,2.87,.77l5.8,1.68c3.88,1.1,7.75,2.21,11.65,3.23,.51,.12,.94,.25,1.41,.43,.46,.18,.93,.37,1.39,.56,.92,.39,1.84,.81,2.75,1.23l5.49,2.52Z" style="fill:#263238;"></path></g><g><path d="M325.3,56.42s-12.4-7.84-15.25-8.38c-2.86-.54-14.8-5.61-16.59-4.92-1.79,.7-1.51,3.94,3.28,7.1,4.79,3.16,10.48,6.88,11.04,7.32,.56,.44,9.26,7.45,10.19,8.18,.93,.73,7.34-9.3,7.34-9.3Z" style="fill:#ffc4c0;"></path><path d="M322.64,53.31c-2.28-1.25-4.57-2.45-6.87-3.67-1.15-.61-2.3-1.21-3.45-1.8l-.87-.44c-.29-.15-.62-.28-.92-.39-.62-.23-1.24-.43-1.86-.63-2.48-.78-4.98-1.5-7.5-2.13-1.26-.32-2.52-.62-3.8-.9-.64-.14-1.28-.27-1.92-.39-.65-.11-1.28-.23-2.01-.24-.37,.01-.84,.11-1.17,.47-.33,.35-.41,.81-.41,1.18,.02,.77,.28,1.43,.58,2.04,.62,1.21,1.51,2.3,2.63,3.08,2.14,1.5,4.29,2.93,6.45,4.38,2.15,1.43,4.34,2.9,6.48,4.27,1.04,.75,2.07,1.54,3.11,2.33,1.05,.77,2.09,1.54,3.16,2.28-1.89-1.8-3.82-3.51-5.82-5.19l-6.47-4.36c-2.14-1.46-4.29-2.92-6.39-4.42-1.01-.7-1.82-1.67-2.39-2.76-.27-.54-.49-1.13-.5-1.66,0-.56,.23-.81,.78-.83,.56,0,1.22,.11,1.85,.21,.63,.11,1.26,.24,1.9,.37,1.26,.27,2.52,.56,3.78,.87,2.51,.63,5.03,1.24,7.51,1.97,.62,.18,1.24,.37,1.85,.57,.6,.19,1.16,.49,1.76,.76l3.51,1.68,7.03,3.35Z" style="fill:#263238;"></path></g></g></g><g><path d="M382.18,212.74c2.48-2.68-2.1-4.07-2.1-4.07,0,0,7.08,.41,8.57-3.35,1.43-3.62-4.17-5.11-4.57-5.22,.37,.02,6.89,.23,8-3.7,1.15-4.08-4.73-4.61-5.1-4.64,.36-.09,5.09-1.41,5.25-4.59,.28-5.46-13.53-3.22-17.22-5.66l-.96-5.72s-.17,1.81-2.41,3.05c-2.77,1.53-5.33,2.64-6.2,4.35-1.43,2.81,.64,4.74,.64,4.74,0,0-3.85,.44-4.82,3.51-.49,1.57,1.59,3.77,1.59,3.77,0,0-3.07,.48-3.76,3.26-.56,2.22,1.61,4.07,1.61,4.07,0,0-2.73,1.83-2.57,4.28,.32,4.94,18.74,11.67,24.06,5.93Z" style="fill:#ffc4c0;"></path><g><path d="M360.99,202.87c-.06-.03-.11,.05-.05,.09,5.52,3.69,12.71,6.05,19.38,5.8,.22,0,.3-.37,.06-.4-6.93-1.06-12.99-2.55-19.39-5.49Z" style="fill:#263238;"></path><path d="M362.73,195.2c-.07-.03-.12,.08-.06,.13,5.71,3.77,13.88,6.21,21.54,5.02,.26-.04,.46-.34,.15-.32-5.15,.41-15.89-2.15-21.64-4.83Z" style="fill:#263238;"></path><path d="M387.48,191.49c-7.39,.86-14.31-.73-21.18-3.39-.09-.03-.13,.1-.06,.14,3.01,2.22,7.56,3.46,11.19,4.12,3.47,.64,6.74,.51,10.08-.61,.13-.04,.13-.28-.03-.26Z" style="fill:#263238;"></path></g><path d="M360.49,202.56c-1.37-1.09-2.49-2.6-2.16-4.44,.15-.84,.62-1.58,1.28-2.11,.82-.66,2.13-.8,2.75-.91-1.29-1.34-2.09-3.28-1.27-5.07,.38-.83,1.07-1.29,1.91-1.67,.45-.21,2.39-.61,2.96-.57-1.03-.74-1.67-2.01-1.67-3.28,0-1.48,.83-2.65,1.97-3.52,1.31-1,2.9-1.51,4.39-2.17,.78-.34,1.54-.69,2.22-1.21,.62-.47,.66-.59,1.11-1.75,.06-.16,.08-.01,.04,.12-.24,.69-.48,1.61-1.75,2.6-1.26,.98-2.75,1.52-4.12,2.33-1.19,.7-2.28,1.66-2.81,2.97-.54,1.35-.16,2.84,.78,3.91,.06,.05,.04,.15-.07,.16-.65,.1-2.17,.68-2.54,.91-.64,.4-1.27,.88-1.56,1.57-.66,1.56-.18,3.45,.88,4.77,.04,.05-1.55,.4-2.58,1.35-.49,.45-.8,1.1-.96,1.74-.37,1.51,.22,3.19,1.43,4.17,.02,.02,.02,.03,.03,.05h0s0,.03,0,.04c0,.02,0,.04-.02,.06h0s-1.99,1.59-2.49,3.21c0,.03-.09-.05-.08-.08,.21-1.96,2.21-3.11,2.33-3.19Z" style="fill:#263238;"></path></g></g></g><g id="freepik--Character_1--inject-6"><g><g><g><g><path d="M121.84,180.6s-3,34.68,4.57,45.88c-.55-3.19,.97,64.51,3.03,92.3,1.49,20.13,5.43,105.68,5.43,105.68l48.52-.59s-5.17-98.08-5.44-105.47c-.62-17.33-2.98-59.57-5.5-97.86,0,0,2.55-8.81,2.35-11.67-1.23-17.48-5.39-28.27-5.39-28.27h-47.57Z" style="fill: rgb(119, 68, 66);"></path><path d="M178.71,334.03l-49.99-26.79c-1.61-30.22-2.71-79.43-2.36-80.84-7.5-11.27-4.52-45.81-4.52-45.81h47.57s4.16,10.79,5.39,28.28c.2,2.86-2.35,11.67-2.35,11.67,2.53,38.28,4.88,80.52,5.5,97.86,.07,1.6,.35,7.45,.76,15.63Z" style="opacity:.1;"></path></g><g><path d="M100.25,466.42c2.68,.9,81.57,.93,84.49-.93,.54-.33-3.11-75.13-3.11-75.13l-48.24,.25,1.92,49.31s-29.39,13.15-32.39,15.53c-2.97,2.37-5.35,10.09-2.66,10.98Z" style="fill: rgb(119, 68, 66);"></path><path d="M184.74,465.49c-2.92,1.85-81.81,1.83-84.49,.93-2.68-.89-.32-8.6,2.67-10.98,2.99-2.38,32.38-15.53,32.38-15.53l-.29-7.43h48.6c.75,17.06,1.38,32.85,1.13,33Z" style="fill:#ebebeb;"></path><g><path d="M99.73,466.64c2.74,.92,82.25,1.61,85.25-.28,1.14-.71,.57-13.4-.48-26.8h-49.84s-29.11,13.42-32.18,15.84c-3.05,2.42-5.49,10.31-2.75,11.23Z" style="fill:#FF570A;"></path><g><g><path d="M100.86,463.5c13.17-.3,66.3-.29,79.34,.41,.11,0,.11,.08,0,.08-13.04,.59-66.18,.14-79.34-.28-.28,0-.28-.21,0-.22Z" style="fill:#263238;"></path><path d="M107.53,452.59c3.12-.12,6.17,1.36,7.87,3.23,1.63,1.79,3.03,4.3,2.93,7.03,0,.08-.15,.08-.16,0-.74-5.15-5.42-9.69-10.65-10.09-.1,0-.11-.16,0-.16Z" style="fill:#263238;"></path><path d="M130.53,440.88c5.27-.07,11.38,1.8,14.65,6.12,.13,.17-.11,.34-.27,.26-4.76-2.46-9.29-4.3-14.47-5.73-.37-.1-.29-.64,.09-.65Z" style="fill:#263238;"></path><path d="M126.45,442.46c5.27-.07,11.38,1.8,14.65,6.12,.13,.17-.11,.34-.27,.26-4.76-2.46-9.29-4.3-14.47-5.73-.37-.1-.29-.64,.09-.65Z" style="fill:#263238;"></path><path d="M122.38,444.04c5.27-.07,11.38,1.8,14.65,6.12,.13,.17-.11,.34-.27,.26-4.76-2.46-9.29-4.3-14.47-5.73-.36-.1-.29-.64,.09-.65Z" style="fill:#263238;"></path><path d="M118.31,445.62c5.27-.07,11.38,1.8,14.65,6.12,.13,.17-.11,.34-.27,.26-4.76-2.46-9.29-4.3-14.47-5.73-.37-.1-.29-.64,.09-.65Z" style="fill:#263238;"></path><path d="M176.87,451.4c5.91,.03,5.88,9.21-.04,9.19-5.91-.03-5.88-9.21,.04-9.19Z" style="fill:#fff;"></path></g><path d="M125.25,434.52c1.92,2.5,4.52,4.35,7.17,6.1,.19,.12,.37,.25,.56,.36,1.09,.71,2.17,1.43,3.2,2.14,.14,.09,.28,.11,.4,.07,.26-.03,.48-.26,.53-.51,.09,.02,.18-.03,.18-.14-.02-.18-.03-.35-.05-.55v-.18s-.02,0,0-.02c-.03-.21-.07-.44-.08-.67-.07-.51-.15-1.04-.27-1.57-.71-3.72-2.29-7.57-4.38-10.51-1.64-2.29-5-4.46-7.67-2.25-2.52,2.09-1.24,5.57,.41,7.71Zm-.23-4.35c.52-5.74,5.7-1.32,6.85,.41,.73,1.12,1.34,2.35,1.91,3.56,.85,1.77,1.5,3.59,2.14,5.42,.22,.69,.46,1.36,.7,2.05t.02,.04c.03,.11,.07,.21,.1,.32-.09-.07-.19-.14-.28-.21-.09-.07-.19-.16-.3-.23-.73-.55-1.47-1.09-2.22-1.62-.88-.62-1.77-1.25-2.64-1.89-2.15-1.57-6.56-4.69-6.27-7.84Z" style="fill:#263238;"></path><path d="M136.55,443.19h.04c1.85,.3,3.73,.68,5.61,1,2.73,.45,5.49,.73,8.18,.33,2.57-.4,5.76-1.94,5.64-4.95,0-.12,0-.25-.01-.37-.41-3.44-4.33-4.19-7.1-3.65-3.23,.62-6.67,2.09-9.59,4.02-.74,.47-1.47,.99-2.14,1.57-.19,.14-.37,.28-.55,.47-.02-.02-.02,0-.04,.02-.04,.02-.09,.05-.12,.12-.11,.07-.21,.16-.32,.26-.07,.09-.05,.18,.02,.23-.18,.35-.08,.88,.4,.95Zm1.47-1.11c-.26-.04-.51-.06-.77-.08-.11-.02-.19-.04-.3-.04,.09-.05,.19-.09,.28-.14l.02-.02c1.49-.74,2.94-1.52,4.44-2.23,.92-.45,1.84-.86,2.79-1.23,1.25-.46,2.54-.95,3.85-1.23,1.69-.39,6.66-.21,6.23,2.47-.08,.55-.38,1.18-.98,1.95-1.98,2.48-7.32,1.7-9.98,1.34-1.86-.24-3.71-.56-5.57-.79Z" style="fill:#263238;"></path></g></g></g><g><path d="M121.84,180.6h48.24s5.65,24.12,5.81,28.83c.16,4.71-2.13,12.25-2.13,12.25l3,43.32-51.4,.5-.36-38.39s-6.5-12.99-3.16-46.51Z" style="fill:#263238;"></path><path d="M121.84,180.6h48.24s5.65,24.12,5.81,28.83c.16,4.71-2.13,12.25-2.13,12.25l3,43.32-51.4,.5-.36-38.39s-6.5-12.99-3.16-46.51Z" style="opacity:.1;"></path></g></g><g><path d="M230.03,254.96s-21.14,42.25-45.82,56.12c-17.41,9.78-51.79,3.3-53.89-12.32-.81-5.98-1.74-24.92-1.68-33.79,.17-34.08,5.35-81.85,5.62-84.37h53.03c.16,2.98,1.09,20.85,.51,27.21-.88,9.77-5.42,19.88-5.73,20.91-3.85,13.22-6.42,30.2-6.51,30.65l18.47-23.24,36.01,18.83Z" style="fill: rgb(119, 68, 66);"></path><g><path d="M278.65,201.65c-2.71-.81-81.55,1.94-84.4,3.9-.21,.14,1.51,20.47,1.78,26.41,.1,2.12-17.17,23.62-17.17,23.62l41.47,15.71,24.22-41.91s28.91-14.17,31.83-16.65c2.89-2.48,4.99-10.27,2.28-11.07Z" style="fill: rgb(119, 68, 66);"></path><path d="M276.38,212.72c-2.92,2.48-31.83,16.65-31.83,16.65l-4.52,7.82-48.39,1.8c2.05-2.87,4.42-6.41,4.38-7.03-.27-5.95-1.99-26.27-1.77-26.42,2.85-1.96,81.69-4.7,84.4-3.9,2.71,.79,.61,8.59-2.28,11.07Z" style="fill:#ebebeb;"></path><g><path d="M279.16,201.41c-2.77-.83-82.25,1.28-85.18,3.27-1.11,.75-.1,13.42,1.42,26.76l49.8-1.75s28.63-14.43,31.61-16.96c2.96-2.53,5.12-10.5,2.35-11.32Z" style="fill:#FF570A;"></path><g><g><path d="M278.14,204.59c-13.15,.77-66.25,2.62-79.31,2.37-.11,0-.11-.07,0-.08,13.02-1.04,66.13-2.46,79.3-2.51,.28,0,.28,.2,0,.22Z" style="fill:#263238;"></path><path d="M271.86,215.73c-3.12,.23-6.22-1.15-7.98-2.95-1.69-1.73-3.18-4.19-3.18-6.93,0-.08,.14-.09,.16,0,.92,5.12,5.76,9.49,10.99,9.72,.11,0,.11,.16,0,.16Z" style="fill:#263238;"></path><path d="M249.29,228.24c-5.26,.25-11.43-1.4-14.85-5.6-.13-.16,.1-.35,.26-.27,4.84,2.29,9.43,3.97,14.66,5.22,.37,.09,.31,.63-.07,.65Z" style="fill:#263238;"></path><path d="M253.3,226.52c-5.26,.25-11.43-1.4-14.85-5.6-.13-.16,.1-.35,.26-.27,4.84,2.29,9.43,3.97,14.66,5.22,.37,.09,.31,.63-.07,.65Z" style="fill:#263238;"></path><path d="M257.32,224.79c-5.26,.25-11.43-1.4-14.85-5.6-.13-.16,.1-.35,.26-.27,4.84,2.29,9.43,3.97,14.66,5.22,.37,.09,.31,.63-.07,.65Z" style="fill:#263238;"></path><path d="M261.33,223.07c-5.26,.25-11.43-1.4-14.85-5.6-.13-.16,.1-.35,.26-.27,4.84,2.29,9.43,3.97,14.66,5.22,.37,.09,.31,.63-.07,.65Z" style="fill:#263238;"></path><path d="M202.61,219.35c-5.91,.18-6.2-9-.28-9.18,5.91-.18,6.2,9,.28,9.18Z" style="fill:#fff;"></path></g><path d="M254.78,234.4c-2-2.43-4.67-4.19-7.38-5.85-.2-.12-.38-.24-.57-.34-1.11-.68-2.22-1.35-3.28-2.03-.14-.08-.28-.1-.41-.06-.26,.04-.47,.28-.51,.52-.09-.02-.17,.04-.17,.15,.02,.18,.04,.35,.07,.54v.18s.02,0,0,.02c.04,.21,.08,.44,.11,.67,.08,.51,.19,1.03,.32,1.56,.84,3.69,2.56,7.49,4.75,10.35,1.71,2.23,5.15,4.28,7.75,1.98,2.44-2.18,1.05-5.61-.68-7.7Zm.38,4.34c-.32,5.75-5.65,1.52-6.86-.17-.77-1.09-1.42-2.3-2.03-3.49-.91-1.74-1.63-3.53-2.33-5.35-.25-.68-.51-1.34-.78-2.02t-.02-.03c-.04-.1-.08-.21-.11-.31,.09,.07,.2,.14,.29,.2s.2,.15,.31,.22c.75,.53,1.51,1.03,2.28,1.54,.9,.59,1.81,1.18,2.71,1.8,2.21,1.49,6.72,4.45,6.54,7.61Z" style="fill:#263238;"></path><path d="M243.19,226.13h-.04c-1.86-.23-3.75-.55-5.64-.8-2.74-.35-5.51-.54-8.19-.05-2.56,.49-5.68,2.14-5.46,5.15,0,.12,0,.25,.03,.37,.53,3.42,4.47,4.04,7.22,3.4,3.2-.74,6.6-2.32,9.45-4.35,.73-.49,1.43-1.04,2.09-1.64,.19-.15,.36-.29,.53-.49,.02,.02,.02,0,.03-.02,.03-.02,.09-.06,.12-.13,.1-.07,.21-.16,.31-.27,.07-.09,.05-.18-.02-.23,.17-.36,.05-.88-.43-.94Zm-1.43,1.17c.26,.03,.51,.04,.78,.05,.11,.01,.19,.03,.3,.03-.09,.06-.19,.09-.28,.15l-.02,.02c-1.46,.8-2.88,1.63-4.36,2.39-.9,.48-1.81,.93-2.75,1.32-1.24,.51-2.51,1.04-3.8,1.37-1.68,.45-6.65,.44-6.31-2.25,.06-.55,.34-1.19,.92-1.98,1.89-2.55,7.26-1.95,9.92-1.69,1.87,.18,3.73,.43,5.6,.59Z" style="fill:#263238;"></path></g></g></g><path d="M175.49,259.16c-3.19,4.17-6.34,8.17-9.72,12.19,2.2-4.76,5.57-8.99,9.72-12.19h0Z" style="fill:#263238;"></path><g><path d="M188.47,209.67c-.72,6.15-6.05,18.54-6.09,18.65-.03,.1-5.62,28.06-5.62,28.06l-49.63,9.67c-.25-3.16,1.91-43.43,1.91-43.43-1.05-1.59-4.53-5.6-5.07-7.86-2.32-9.73-2.81-33.04-2.72-34.16h66.02v-.1s.01,.07,.01,.1c.26,3.2,1.86,23.41,1.19,29.07Z" style="fill:#263238;"></path><g><path d="M183.93,208.8c-.11,1.62-2.42,8.19-4.78,14.78-.66,1.88-1.3,3.66-1.35,3.9-.09,.48-3.29,18.74-5.22,29.73l-1.13,.22c1.91-10.93,5.18-29.65,5.27-30.14,.04-.24,.38-1.19,1.4-4.06,1.61-4.51,4.61-12.89,4.73-14.49,.39-5.63-.48-21.53-.87-28.13h1.08c.4,6.67,1.27,22.45,.87,28.2Z" style="fill:#fff;"></path><path d="M180.52,208.8c-.11,1.62-2.42,8.19-4.78,14.78-.66,1.88-1.31,3.66-1.35,3.9-.09,.49-3.42,19.52-5.34,30.41l-1.14,.22c1.89-10.82,5.31-30.33,5.4-30.83,.04-.24,.38-1.19,1.4-4.06,1.61-4.51,4.61-12.89,4.71-14.49,.39-5.63-.48-21.52-.87-28.13h1.09c.4,6.67,1.27,22.45,.87,28.2Z" style="fill:#fff;"></path></g></g><path d="M187.29,180.6h-.01v-.1s.01,.07,.01,.1Z" style="fill:#FF570A;"></path></g></g><g><g><path d="M119.76,191.14h69.77c.99-1.13-15.27-71.82-28.74-86.18-4.64-4.95-14.18-5.55-19.59,.13-10.17,10.68-22.32,85.02-21.44,86.06Z" style="fill:#455a64;"></path><g><path d="M188.13,182.76H120.68c.2-1.35,.44-2.84,.7-4.44h65.77c.36,1.6,.69,3.09,.98,4.44Z" style="fill:#FF570A;"></path><path d="M186.11,173.95H122.1c.17-.99,.35-2.01,.54-3.06h62.72c.26,1.05,.51,2.07,.75,3.06Z" style="fill:#FF570A;"></path></g></g><g><g><path d="M167.28,109.12c25.33,20.33,71.33,71.68,78.76,78.69,5.04,4.76-19.52,31.97-22.46,28.22-3.76-4.8-52.07-66.64-65.55-97.36-6.25-14.24,1.15-16.05,9.25-9.55Z" style="fill: rgb(119, 68, 66);"></path><g><path d="M245.45,243.44c3.62-1.07,3.69-4.97,3.69-4.97,0,0,2.88,.89,5.45-.42,2.95-1.5,1.89-6.79,1.89-6.79,0,0,3.1,.3,5.68-1.36,2.68-1.72,2.37-7.21,2.37-7.21,0,0,3.04-1.31,4.24-4.34,2.06-5.19-3-12.06-6.17-16.46-3.17-4.4-16.29-13.9-18.6-15.97l-28.4,20.11s8.61,23.77,13.07,28.41c3.76,3.91,12.72,10.19,16.78,9Z" style="fill: rgb(119, 68, 66);"></path><g><path d="M248.55,238.6c-5-3.2-8.77-7.7-12.8-11.98-.09-.1,.06-.23,.15-.14,3.95,4.3,8.71,7.76,12.83,11.9,.11,.11-.05,.3-.18,.22Z" style="fill:#263238;"></path><path d="M256.05,231.43c-1.11-.76-1.96-1.88-2.83-2.89-.93-1.09-1.84-2.2-2.73-3.32-1.79-2.25-3.52-4.53-5.19-6.87-.07-.1,.07-.24,.15-.14,1.78,2.23,3.6,4.44,5.48,6.6,.94,1.08,1.89,2.15,2.84,3.22,.89,.99,1.91,1.96,2.56,3.13,.1,.17-.12,.38-.29,.27Z" style="fill:#263238;"></path><path d="M264.46,222.59c-.99-.62-1.71-1.82-2.41-2.74-.79-1.04-1.59-2.08-2.4-3.11-1.61-2.06-3.22-4.12-4.9-6.13-.08-.1,.06-.24,.15-.14,1.72,2.03,3.46,4.03,5.16,6.07,.83,1,1.66,2.01,2.48,3.02,.7,.86,1.67,1.86,2.01,2.94,.02,.06-.06,.11-.11,.08Z" style="fill:#263238;"></path></g></g></g><g><path d="M198.76,131.14l-29.92,11.25s-10.66-17.35-14.16-29.32c-2.67-9.14,2.25-11.31,7.84-8.36,18.61,9.85,36.24,26.43,36.24,26.43Z" style="fill:#FF570A;"></path><g><path d="M168.05,137.14c4.48-2.06,16.81-7.29,25.26-9.65,.05-.01,.13,.17,.08,.19-6.74,3.02-20.58,8.07-25.23,9.73-.09,.03-.2-.24-.11-.28Z" style="fill:#263238;"></path><path d="M168.54,142.56c-1.36-2.22-2.54-4.58-3.74-6.9-.47-.58-.94-1.16-1.37-1.76-.55-.76-1.08-1.61-1.47-2.47-.02-.04,.04-.08,.06-.04,.26,.38,.49,.79,.75,1.17,.26,.39,.53,.76,.79,1.15,.27,.4,.55,.78,.84,1.16-1.17-2.27-2.28-4.57-3.29-6.92-.03-.07,.06-.12,.1-.06,1.45,2.31,2.79,4.69,4.06,7.1,1.24,2.35,2.54,4.71,3.62,7.14,.43-.13,.85-.26,1.29-.36,.11-.02,.19,.13,.08,.19-.45,.25-.91,.46-1.37,.68-.12,.06-.27,.03-.34-.09Z" style="fill:#263238;"></path></g></g></g><g><g><path d="M142.2,114.99c3.68,.59,12.1-5.31,14.3-10.68,.15-.37-1.98-12.22-2.29-14.99-.06-.57-16.95,6.17-16.95,6.17,0,0,2.36,5.63,2.87,10.48,.04,.41,.04,.79,0,1.15,0,.05,0,.12,0,.19-.11,2.2-1.88,7.04,2.06,7.68Z" style="fill: rgb(119, 68, 66);"></path><path d="M154.38,90.62c-1.95,5.94-6.05,13.68-14.33,14.69-.65-4.67-2.79-9.82-2.79-9.82,0,0,16.88-6.74,16.95-6.17,.03,.32,.1,.77,.17,1.3Z" style="fill:#263238;"></path></g><g><path d="M160.03,70.74c.62,6.47-6.18,23.41-11.31,26.45-7.44,4.41-17.83,2.86-21.12-5.68-3.19-8.27,6.06-30.19,11.62-32.77,8.2-3.8,19.9,2.44,20.81,12Z" style="fill: rgb(119, 68, 66);"></path><g><g><path d="M140.69,77.35s.07,.09,.05,.13c-.45,1.15-.76,2.53,.15,3.29,.03,.02,0,.08-.03,.06-1.22-.63-.77-2.47-.17-3.48Z" style="fill:#263238;"></path><path d="M142.16,76.5c1.91,.52,.74,4.31-1.04,3.83-1.75-.47-.57-4.26,1.04-3.83Z" style="fill:#263238;"></path></g><g><path d="M133.84,75.43s-.11,.03-.12,.08c-.33,1.19-.9,2.49-2.08,2.55-.04,0-.05,.06-.01,.07,1.35,.22,2.1-1.52,2.22-2.69Z" style="fill:#263238;"></path><path d="M133.17,73.88c-1.84-.73-3.17,3.01-1.46,3.69,1.68,.67,3-3.08,1.46-3.69Z" style="fill:#263238;"></path></g><path d="M144.19,75.23c-.48-.29-.87-.64-1.31-.97-.5-.38-.93-.63-1.14-1.25-.11-.33,.12-.79,.43-.93,.72-.33,1.45-.01,2.07,.42,.67,.47,1.07,1,1.29,1.78,.22,.76-.71,1.33-1.34,.95Z" style="fill:#263238;"></path><path d="M132.3,71.51c.55,.08,1.07,.06,1.63,.08,.62,.02,1.12,.11,1.67-.24,.3-.18,.41-.69,.26-.99-.35-.71-1.11-.93-1.86-.99-.82-.06-1.46,.1-2.13,.56-.65,.45-.3,1.48,.43,1.58Z" style="fill:#263238;"></path><path d="M138.4,88.58c-.37,.19-.76,.48-1.2,.38-.42-.09-.84-.43-1.17-.69-.03-.03-.08,0-.07,.04,.17,.55,.72,1.03,1.29,1.1,.56,.07,.97-.31,1.25-.75,.04-.06-.04-.12-.1-.09Z" style="fill:#263238;"></path><path d="M138.26,84.68c-.97,.82-2.11,1.07-3.22,.95-.5-.05-.99-.19-1.46-.38-.09-.03-.19-.07-.26-.12-.08-.04-.16-.07-.24-.12-.13-.06-.17-.2-.15-.34h0c.01-.05,.03-.09,.05-.13h0l.03-.11c.26-.91,.77-2.26,.77-2.26-.38,.06-2.3,.3-2.13-.17,1.45-3.84,3.05-8.1,5.3-11.62,.07-.12,.26-.03,.2,.1-1.24,3.74-3.14,7.24-4.45,10.98,.6-.04,1.59-.14,2.06,.01,.12,.08-1.04,2.59-1.12,3.01,0,0,0,.02,0,.05,1.46,.67,2.75,.56,4.54,0,.11-.04,.18,.07,.08,.14Z" style="fill:#263238;"></path></g><path d="M155.91,85.74c-2.72-.09-3.45-2.67-3.6-4.44-.15-1.76,3.4-11.12,2.92-13.84-.48-2.73-2.67-4.85-4.93-4.89-2.25-.04-5.77,1.83-7.25,1.21s-.8-4.03-1.86-4.36c-2.33-.74-6.61,4.24-7.83,6.66,0,0,3.39-10.97,14.87-8.44,11.2,2.46,12.34,11.05,12.26,14.63-.17,6.86-4.58,13.48-4.58,13.48Z" style="fill:#263238;"></path><g><path d="M152.42,83.71s5.23-4.77,7.49-2.78c2.25,1.99-2.57,9.53-5.84,9.98-3.27,.45-3.74-2.57-3.74-2.57l2.1-4.62Z" style="fill: rgb(119, 68, 66);"></path><path d="M158.47,83.06s.04,.08,0,.08c-2.31,.38-3.86,2.09-5.1,3.95,.81-.64,1.76-.88,2.64,.11,.05,.05-.03,.13-.08,.1-.83-.38-1.48-.37-2.23,.19-.53,.4-.95,.96-1.37,1.46-.14,.17-.46-.01-.34-.21,0-.01,.02-.03,.03-.05,.55-2.71,3.5-6.01,6.46-5.63Z" style="fill:#263238;"></path></g></g></g></g></g></g></svg>