<svg width="150" height="125" viewBox="0 0 150 125" fill="none" xmlns="http://www.w3.org/2000/svg">
<g clip-path="url(#clip0_1_14)">
<path d="M59.2493 49.9515C64.8159 46.554 73.2296 41.4183 79.1369 50.5208C83.6936 57.546 71.587 68.7742 69.111 70.9483C60.5938 78.452 48.6089 84.5445 35.9912 84.5506C27.6201 84.5506 18.969 81.8677 10.8655 75.1332C4.69054 70.0036 0.882134 61.5552 0.133838 51.3505C-0.94298 36.743 4.5932 21.1422 14.9416 9.62937C16.4078 8.00025 18.9264 7.86096 20.5629 9.31445C22.1995 10.774 22.3394 13.2752 20.8793 14.9104C11.9423 24.8546 7.16053 38.2631 8.07917 50.7691C8.6632 58.6967 11.5408 65.3585 15.9758 69.0467C28.995 79.8631 42.4704 77.2165 51.4804 73.0862C64.2562 67.2359 75.2312 57.6247 72.1467 54.3483C70.8022 52.919 69.8775 52.7555 63.4227 56.6981C61.5246 57.8609 59.5535 59.06 57.4546 60.0411C54.5527 61.3977 51.1153 61.1797 48.2743 59.4718C45.2628 57.661 43.3647 54.53 43.2126 51.1022C42.4461 34.4234 60.3322 14.3835 61.0926 13.5356C62.5588 11.9065 65.0714 11.7733 66.7079 13.2328C68.3444 14.6923 68.4844 17.1936 67.0182 18.8287C62.4371 23.928 50.653 39.5954 51.164 50.7449C51.2066 51.6654 51.8271 52.3558 52.3929 52.695C53.3967 53.4278 55.7876 52.3861 59.2675 49.9515H59.2493Z" fill="#FF570A"/>
<path d="M21.2991 39.5409C21.2078 39.5409 21.1166 39.5409 21.0192 39.5288C18.8291 39.3774 17.1743 37.4879 17.3203 35.3016C18.5857 17.0058 31.7448 6.4862 32.3045 6.05015C33.8741 4.82074 36.119 4.93581 37.5487 6.32873C38.9784 7.7156 39.1548 9.95034 37.9563 11.5371C37.7494 11.8096 37.5061 12.064 37.2323 12.2759C37.1228 12.3607 26.2877 21.0211 25.2596 35.8466C25.1136 37.936 23.3675 39.5349 21.293 39.5349L21.2991 39.5409Z" fill="#FF570A"/>
<path d="M36.8369 43.1383C36.7274 43.1383 36.6239 43.1383 36.5144 43.1262C34.3243 42.9505 32.6939 41.0368 32.8703 38.8566C34.3547 20.5608 47.7146 9.64148 48.2803 9.18121C49.9899 7.80645 52.4963 8.07292 53.8773 9.77471C55.2523 11.4765 54.9907 13.9595 53.2872 15.3404C53.1595 15.4433 42.008 24.6851 40.8035 39.4925C40.6331 41.5637 38.8932 43.1322 36.843 43.1322L36.8369 43.1383Z" fill="#FF570A"/>
<path d="M90.6838 34.599C85.1172 37.9966 76.7034 43.1322 70.7961 34.0298C66.2394 27.0046 78.346 15.7764 80.8221 13.6022C89.3332 6.09859 101.318 0 113.936 0C122.307 0 130.958 2.68289 139.061 9.41738C145.236 14.547 149.051 22.9954 149.799 33.2001C150.87 47.8076 145.334 63.4023 134.991 74.9212C133.525 76.5503 131.007 76.6896 129.37 75.2361C127.734 73.7766 127.594 71.2754 129.054 69.6402C137.991 59.6959 142.773 46.2875 141.854 33.7815C141.27 25.8539 138.392 19.1921 133.957 15.5039C120.938 4.68749 107.463 7.33405 98.4527 11.4644C85.6769 17.3147 74.7019 26.9258 77.7863 30.2022C79.1308 31.6315 80.0555 31.795 86.5104 27.8524C88.4085 26.6896 90.3796 25.4905 92.4785 24.5094C95.3804 23.1528 98.8177 23.3709 101.659 25.0787C104.67 26.8895 106.568 30.0206 106.72 33.4484C107.487 50.1271 89.6009 70.1671 88.8404 71.0149C87.3743 72.6441 84.8617 72.7773 83.2252 71.3177C81.5886 69.8582 81.4487 67.357 82.9149 65.7218C87.4959 60.6225 99.2801 44.9551 98.769 33.8057C98.7265 32.8851 98.1059 32.1947 97.5401 31.8556C96.5363 31.1228 94.1454 32.1644 90.6655 34.599H90.6838Z" fill="#FF570A"/>
<path d="M128.634 45.0096C128.725 45.0096 128.816 45.0096 128.914 45.0218C131.104 45.1732 132.759 47.0627 132.613 49.249C131.347 67.5447 118.188 78.0644 117.629 78.5004C116.059 79.7298 113.814 79.6147 112.384 78.2218C110.955 76.8289 110.778 74.6002 111.977 73.0135C112.184 72.741 112.427 72.4866 112.701 72.2746C112.81 72.1898 123.645 63.5295 124.673 48.7039C124.819 46.6145 126.566 45.0157 128.64 45.0157L128.634 45.0096Z" fill="#FF570A"/>
<path d="M113.096 41.4062C113.206 41.4062 113.309 41.4062 113.419 41.4183C115.609 41.5939 117.239 43.5077 117.063 45.6879C115.578 63.9837 102.218 74.903 101.653 75.3633C99.9432 76.738 97.4367 76.4715 96.0557 74.7698C94.6808 73.068 94.9424 70.5849 96.6458 69.2041C96.7736 69.1012 107.925 59.8594 109.13 45.052C109.3 42.9808 111.04 41.4122 113.09 41.4122L113.096 41.4062Z" fill="#FF570A"/>
<path d="M12.5081 114.868C12.5081 115.655 12.3803 117.163 11.5165 118.417C10.5005 119.894 8.76053 120.639 6.3453 120.639C4.33767 120.639 2.76807 120.125 1.67301 119.101C1.19848 118.641 0.492765 117.757 0.13991 116.315C0.109491 116.194 0.188579 116.073 0.30417 116.049L4.41676 115.201C4.53235 115.177 4.64186 115.243 4.67228 115.352C5.04338 116.624 6.07761 116.697 6.30271 116.697C7.31869 116.697 7.94531 115.843 7.94531 115.056C7.94531 114.19 7.27002 113.899 4.76353 112.827L4.55668 112.736C3.37644 112.252 0.243333 110.956 0.243333 107.57C0.243333 103.961 3.4312 102.011 6.43047 102.011C6.99625 102.011 8.05482 102.083 9.13164 102.531C9.8921 102.858 11.5225 103.773 11.845 105.675C11.8632 105.79 11.7963 105.899 11.6807 105.923L7.86014 106.874C7.75672 106.898 7.65329 106.849 7.61071 106.753C7.42211 106.323 7.06926 105.947 6.28446 105.947C5.5605 105.947 4.8122 106.444 4.8122 107.279C4.8122 108.055 5.28673 108.273 8.38942 109.696C11.3583 111.059 12.5203 112.506 12.5203 114.862L12.5081 114.868Z" fill="#FF570A"/>
<path d="M29.2505 113.62C29.2505 117.545 25.9957 120.736 21.9987 120.736C20.7333 120.736 19.4983 120.415 18.4032 119.798C18.3302 119.755 18.239 119.81 18.239 119.894V124.588C18.239 124.709 18.1416 124.806 18.02 124.806H14.2055C14.0838 124.806 13.9865 124.709 13.9865 124.588V106.934C13.9865 106.813 14.0838 106.716 14.2055 106.716H18.02C18.1416 106.716 18.239 106.813 18.239 106.934V107.346C18.239 107.431 18.3302 107.479 18.4032 107.437C19.4983 106.819 20.7333 106.498 21.9987 106.498C25.9957 106.498 29.2505 109.69 29.2505 113.614V113.62ZM24.6694 113.62C24.6694 111.822 23.1789 110.356 21.3417 110.356C19.5044 110.356 18.2329 111.822 18.2329 113.62C18.2329 115.419 19.5044 116.885 21.3417 116.885C23.1789 116.885 24.6694 115.419 24.6694 113.62Z" fill="#FF570A"/>
<path d="M44.9708 113.62C44.9708 117.545 41.716 120.736 37.719 120.736C33.722 120.736 30.4672 117.545 30.4672 113.62C30.4672 109.696 33.722 106.504 37.719 106.504C41.716 106.504 44.9708 109.696 44.9708 113.62ZM40.8825 113.62C40.8825 111.906 39.465 110.52 37.7251 110.52C35.9851 110.52 34.5615 111.912 34.5615 113.62C34.5615 115.328 35.979 116.721 37.7251 116.721C39.4711 116.721 40.8825 115.328 40.8825 113.62Z" fill="#FF570A"/>
<path d="M51.9549 110.35C51.4499 110.356 51.1823 110.847 51.0971 111.028C50.8477 111.531 50.8781 111.912 50.8781 112.439V120.088C50.8781 120.209 50.7807 120.306 50.6591 120.306H46.5891C46.4674 120.306 46.37 120.209 46.37 120.088V106.928C46.37 106.807 46.4674 106.71 46.5891 106.71H50.4035C50.5252 106.71 50.6226 106.807 50.6226 106.928V107.31C50.6226 107.395 50.7138 107.449 50.7868 107.401C51.6933 106.843 52.7579 106.722 53.6644 106.716H55.526C55.6599 106.698 55.745 106.601 55.745 106.486V102.755C55.745 102.634 55.8424 102.537 55.9641 102.537H59.7785C59.9002 102.537 59.9976 102.634 59.9976 102.755V106.486C59.9976 106.607 60.0949 106.704 60.2166 106.704H61.6341C61.7557 106.704 61.8531 106.801 61.8531 106.922V110.138C61.8531 110.259 61.7557 110.356 61.6341 110.356H60.2166C60.0949 110.356 59.9976 110.453 59.9976 110.574C59.9976 111.7 59.9976 115.037 59.9976 115.074V115.165C59.9793 115.576 59.9611 116.146 60.2957 116.485C60.4903 116.685 60.7945 116.782 61.2021 116.782H61.9443C62.0782 116.782 62.1816 116.903 62.1573 117.03L61.6706 120.246C61.6523 120.349 61.5732 120.427 61.4698 120.434C61.0014 120.464 59.7481 120.53 59.3709 120.53C59.3405 120.53 59.3162 120.53 59.2979 120.53C56.98 120.409 55.7572 119.228 55.7572 117.109V110.58C55.7572 110.459 55.6599 110.35 55.5382 110.35C55.5382 110.35 52.5146 110.356 51.9671 110.368L51.9549 110.35Z" fill="#FF570A"/>
<path d="M73.9232 116.255C73.8867 116.727 73.765 117.236 73.5581 117.757C72.7429 119.489 70.8509 120.518 68.5087 120.518C68.1862 120.518 67.8516 120.5 67.517 120.458C66.4584 120.331 65.5398 120.052 64.7733 119.628C63.9885 119.095 63.3862 118.356 62.9786 117.418C62.9238 117.29 62.9968 117.145 63.1306 117.121L66.8721 116.321C66.9573 116.303 67.0486 116.34 67.0972 116.412C67.3588 116.8 67.8029 116.994 68.0463 117.024C68.6182 117.09 68.9163 116.939 69.0623 116.8C69.2144 116.66 69.2813 116.467 69.2509 116.255C69.19 115.782 68.9102 115.564 67.4623 114.88L67.444 114.868C67.1581 114.729 66.7991 114.559 66.3976 114.365C66.1238 114.244 65.8562 114.117 65.6006 113.984L65.5824 113.972C65.5459 113.947 65.5094 113.929 65.4729 113.905C64.1771 113.166 63.4166 112.264 63.2219 111.222C62.9421 109.738 63.9033 108.479 64.098 108.242C64.39 107.915 64.7246 107.631 65.1018 107.388C66.2333 106.668 67.6995 106.371 69.2265 106.547C70.1391 106.656 70.9665 106.898 71.6904 107.273C72.0311 107.455 72.3536 107.667 72.6334 107.903C72.8281 108.079 73.4425 108.678 73.6311 109.599C73.6555 109.714 73.5764 109.829 73.4608 109.853L69.7801 110.592C69.6767 110.616 69.5733 110.556 69.5368 110.459C69.4334 110.205 69.2083 109.95 68.7216 109.89C68.3991 109.853 68.1071 109.95 67.9185 110.15C67.7786 110.308 67.7178 110.501 67.7664 110.659C67.8394 110.901 68.0889 111.289 69.4638 111.846C69.7376 111.955 69.987 112.046 70.2364 112.149C70.5589 112.264 70.8691 112.385 71.1551 112.512C72.0311 112.918 74.0509 114.099 73.9292 116.243L73.9232 116.255Z" fill="#FF570A"/>
<path d="M88.6762 114.874C88.6762 116.455 88.0496 117.963 87.0397 118.804C85.3788 120.222 84.1377 120.361 81.2845 120.361H75.7057C75.5779 120.361 75.4745 120.258 75.4745 120.131V102.628C75.4745 102.507 75.5719 102.404 75.6935 102.404H81.9658C83.8518 102.404 85.4883 102.846 86.4495 103.622C87.4838 104.409 88.0313 105.626 88.0313 107.14C88.0313 108.394 87.3621 109.617 86.1879 110.495C86.0602 110.592 86.0784 110.792 86.2244 110.865C87.8427 111.628 88.664 112.972 88.664 114.868L88.6762 114.874ZM84.3263 114.601C84.3263 113.941 84.0161 113.487 83.4138 113.263C82.9453 113.075 82.3552 113.075 82.0023 113.075H80.0191C79.8974 113.075 79.8 113.172 79.8 113.293V116.055C79.8 116.182 79.9035 116.279 80.0251 116.279H82.0084C82.2883 116.279 82.8784 116.279 83.3651 116.073C83.9978 115.819 84.3324 115.31 84.3324 114.595L84.3263 114.601ZM79.8122 109.363C79.8122 109.484 79.9095 109.581 80.0312 109.581H81.4548C81.7347 109.581 82.3248 109.581 82.8054 109.387C83.4381 109.145 83.7788 108.648 83.7788 107.964C83.7788 107.322 83.4685 106.892 82.8601 106.668C82.3917 106.492 81.8016 106.492 81.4548 106.492H80.0373C79.9095 106.492 79.8122 106.595 79.8122 106.716V109.357V109.363Z" fill="#FF570A"/>
<path d="M101.993 106.934V120.094C101.993 120.215 101.896 120.312 101.774 120.312H97.9599C97.8382 120.312 97.7409 120.215 97.7409 120.094V119.731C97.7409 119.646 97.6436 119.592 97.5706 119.64C96.6154 120.294 95.6724 120.518 94.8207 120.518C92.9226 120.518 91.4929 119.398 91.4747 119.38C91.3652 119.295 91.2618 119.204 91.1644 119.113C89.7712 117.72 89.5401 116.588 89.5401 114.589V106.94C89.5401 106.819 89.6374 106.722 89.7591 106.722H93.8291C93.9507 106.722 94.0481 106.819 94.0481 106.94V114.377C94.0481 114.88 94.0785 115.461 94.2914 115.928C94.3888 116.128 94.5165 116.291 94.6747 116.412C94.9302 116.612 95.2587 116.709 95.6846 116.709C96.4694 116.709 97.0778 116.442 97.2725 116.006C97.4915 115.534 97.4915 114.898 97.4915 114.377V106.94C97.4915 106.819 97.5888 106.722 97.7105 106.722H101.78C101.902 106.722 102 106.819 102 106.94L101.993 106.934Z" fill="#FF570A"/>
<path d="M118.663 102.646V120.082C118.663 120.203 118.565 120.3 118.444 120.3H114.629C114.508 120.3 114.41 120.203 114.41 120.082V119.882C114.41 119.798 114.319 119.749 114.246 119.785C113.151 120.403 111.916 120.724 110.651 120.724C106.654 120.724 103.399 117.533 103.399 113.608C103.399 109.684 106.654 106.492 110.651 106.492C111.916 106.492 113.151 106.813 114.246 107.431C114.319 107.473 114.41 107.419 114.41 107.34V102.646C114.41 102.525 114.508 102.428 114.629 102.428H118.444C118.565 102.428 118.663 102.525 118.663 102.646ZM114.41 113.614C114.41 111.816 113.139 110.35 111.301 110.35C109.464 110.35 107.98 111.816 107.98 113.614C107.98 115.413 109.47 116.879 111.301 116.879C113.133 116.879 114.41 115.413 114.41 113.614Z" fill="#FF570A"/>
<path d="M135.326 102.646V120.082C135.326 120.203 135.229 120.3 135.107 120.3H131.293C131.171 120.3 131.074 120.203 131.074 120.082V119.882C131.074 119.798 130.982 119.749 130.909 119.785C129.814 120.403 128.579 120.724 127.314 120.724C123.317 120.724 120.062 117.533 120.062 113.608C120.062 109.684 123.317 106.492 127.314 106.492C128.579 106.492 129.814 106.813 130.909 107.431C130.982 107.473 131.074 107.419 131.074 107.34V102.646C131.074 102.525 131.171 102.428 131.293 102.428H135.107C135.229 102.428 135.326 102.525 135.326 102.646ZM131.074 113.614C131.074 111.816 129.802 110.35 127.965 110.35C126.127 110.35 124.643 111.816 124.643 113.614C124.643 115.413 126.134 116.879 127.965 116.879C129.796 116.879 131.074 115.413 131.074 113.614Z" fill="#FF570A"/>
<path d="M149.988 107.007L145.693 118.895L143.691 124.552C143.661 124.636 143.576 124.697 143.484 124.697H139.244C139.092 124.697 138.988 124.552 139.037 124.412L140.698 119.513C140.716 119.464 140.716 119.416 140.698 119.368L136.153 107.013C136.099 106.874 136.208 106.722 136.36 106.722H140.163C140.254 106.722 140.333 106.777 140.369 106.862L142.858 113.56C142.931 113.753 143.204 113.747 143.271 113.554L145.565 106.868C145.595 106.777 145.681 106.722 145.772 106.722H149.787C149.939 106.722 150.043 106.874 149.994 107.013L149.988 107.007Z" fill="#FF570A"/>
</g>
<defs>
<clipPath id="clip0_1_14">
<rect width="150" height="124.8" fill="white"/>
</clipPath>
</defs>
</svg>
