<?xml version="1.0" standalone="no"?>
<!DOCTYPE svg PUBLIC "-//W3C//DTD SVG 20010904//EN"
 "http://www.w3.org/TR/2001/REC-SVG-20010904/DTD/svg10.dtd">
<svg version="1.0" xmlns="http://www.w3.org/2000/svg"
 width="600.000000pt" height="600.000000pt" viewBox="0 0 600.000000 600.000000"
 preserveAspectRatio="xMidYMid meet">
<metadata>
Created by potrace 1.14, written by Peter Selinger 2001-2017
</metadata>
<g transform="translate(0.000000,600.000000) scale(0.100000,-0.100000)"
fill="#000000" stroke="none">
<path d="M4409 5496 c-2 -2 -26 -6 -54 -9 -98 -12 -193 -32 -295 -64 -47 -15
-87 -27 -90 -28 -3 -1 -14 -5 -25 -10 -11 -4 -42 -17 -68 -27 -149 -57 -368
-183 -522 -302 -95 -72 -255 -221 -321 -298 -62 -72 -153 -199 -155 -215 -1
-5 -9 -19 -19 -33 -27 -40 -59 -134 -66 -198 -7 -70 6 -124 45 -182 115 -171
267 -228 463 -174 68 19 231 95 255 119 8 8 18 15 22 15 5 0 38 20 74 44 75
50 161 94 197 100 36 5 75 -18 90 -54 20 -49 7 -184 -31 -315 -78 -269 -258
-581 -532 -922 -94 -117 -97 -123 -99 -185 -1 -49 42 -115 87 -134 44 -18 108
-18 145 1 29 15 152 159 252 295 65 89 178 256 178 264 0 3 13 24 29 48 16 24
44 72 62 108 18 36 36 67 41 68 4 2 8 10 8 18 0 7 8 28 18 46 45 82 129 321
148 422 40 214 27 358 -41 466 -34 54 -113 130 -135 130 -6 0 -10 4 -10 8 0
14 -123 52 -180 56 -31 2 -80 -3 -110 -11 -52 -13 -229 -100 -260 -128 -8 -8
-26 -18 -40 -24 -26 -11 -61 -32 -70 -41 -10 -11 -151 -81 -173 -86 -49 -11
-80 -5 -109 23 -26 24 -29 33 -24 68 3 23 17 62 31 88 38 67 164 193 285 284
106 79 282 193 299 193 5 0 11 4 13 8 10 26 476 226 513 221 5 -1 31 3 95 16
154 30 341 25 504 -15 267 -65 529 -233 656 -420 36 -54 87 -155 108 -215 14
-41 23 -70 23 -72 1 -2 7 -26 15 -55 8 -29 16 -69 19 -88 3 -19 7 -46 11 -60
11 -50 10 -337 -2 -425 -24 -179 -37 -237 -90 -395 -79 -235 -245 -524 -387
-675 -110 -115 -67 -274 78 -292 83 -10 128 26 268 215 128 172 230 356 306
552 37 93 86 247 96 299 2 13 6 30 9 39 6 18 13 57 22 112 3 19 7 46 10 60 12
70 19 179 18 310 -1 151 -5 207 -29 340 -46 261 -183 534 -345 690 -60 57
-101 92 -121 105 -9 6 -50 33 -90 61 -161 112 -409 214 -574 238 -23 4 -52 9
-65 12 -27 7 -355 15 -361 10z"/>
<path d="M1322 5275 c-35 -16 -184 -159 -248 -240 -21 -27 -41 -52 -44 -55
-17 -17 -108 -163 -147 -236 -69 -129 -137 -315 -157 -424 -2 -14 -7 -43 -11
-65 -4 -22 -9 -48 -11 -57 -16 -94 -14 -144 8 -187 33 -64 67 -85 138 -88 55
-2 61 1 104 38 45 40 48 47 60 149 10 79 21 134 42 210 23 86 78 227 95 244 5
6 9 18 9 27 0 10 4 19 8 21 5 2 23 29 41 60 49 88 134 194 226 285 98 96 111
115 114 166 8 117 -116 200 -227 152z"/>
<path d="M654 5154 c-37 -15 -102 -85 -194 -209 -25 -33 -48 -61 -52 -63 -5
-2 -8 -8 -8 -13 0 -4 -20 -39 -44 -77 -173 -267 -290 -593 -342 -952 -10 -66
-12 -405 -3 -460 5 -30 12 -75 15 -100 3 -25 8 -52 9 -60 70 -342 222 -595
469 -779 211 -157 382 -235 651 -297 37 -8 48 -10 155 -19 347 -29 686 52
1045 249 50 27 92 52 95 55 3 3 18 13 33 21 41 21 243 175 301 229 125 118
276 287 276 310 0 6 4 11 8 11 16 0 101 166 120 235 19 69 21 139 7 186 -9 28
-58 102 -94 142 -89 98 -241 144 -361 109 -25 -7 -46 -12 -48 -12 -1 1 -28 -8
-60 -20 -70 -26 -180 -86 -292 -159 -208 -135 -293 -125 -292 37 0 39 3 79 6
89 3 10 8 34 11 53 8 51 55 203 67 218 6 6 7 12 3 12 -4 0 0 11 9 25 9 14 14
25 12 25 -8 0 111 226 171 324 95 157 244 361 336 463 45 49 55 77 53 136 -6
146 -180 199 -281 86 -62 -69 -154 -187 -233 -299 -45 -63 -86 -120 -92 -127
-5 -7 -10 -14 -10 -16 0 -3 -29 -52 -65 -111 -118 -192 -242 -475 -269 -610
-3 -12 -11 -51 -19 -88 -8 -37 -15 -120 -15 -184 -1 -154 24 -227 112 -323 30
-32 95 -79 107 -77 3 1 12 -4 20 -10 21 -17 80 -34 135 -39 52 -5 161 12 170
26 3 5 11 9 19 9 11 0 69 31 242 131 17 10 51 30 74 44 63 40 162 84 195 87
16 1 39 -4 51 -10 29 -16 54 -63 48 -92 -8 -43 -27 -90 -35 -90 -5 0 -11 -8
-15 -19 -6 -21 -126 -146 -200 -210 -58 -49 -281 -200 -358 -243 -285 -156
-486 -230 -697 -255 -73 -9 -252 -8 -320 1 -241 32 -513 167 -680 336 -66 67
-72 74 -102 122 -49 75 -112 216 -122 271 -3 12 -5 22 -6 22 -2 0 -9 27 -15
65 -3 19 -8 42 -11 50 -12 33 -17 113 -18 275 -1 181 8 278 34 385 6 25 13 54
15 65 9 42 54 183 78 245 24 63 105 236 130 274 66 106 145 223 161 241 102
112 129 157 129 216 -2 112 -116 187 -219 143z"/>
<path d="M1964 5150 c-54 -27 -187 -158 -259 -255 -17 -22 -35 -44 -41 -50
-13 -12 -87 -127 -137 -212 -70 -122 -147 -318 -173 -443 -3 -14 -9 -44 -14
-67 -15 -64 -24 -143 -23 -196 1 -85 83 -159 166 -151 91 9 141 64 152 168 7
66 21 141 35 196 5 19 10 38 10 42 1 10 28 88 39 113 5 11 23 52 41 90 33 73
118 218 132 223 4 2 8 8 8 14 0 16 145 185 208 242 57 54 82 99 82 152 0 109
-127 184 -226 134z"/>
<path d="M4476 3835 c-63 -22 -103 -72 -111 -138 -22 -203 -78 -384 -173 -552
-88 -156 -142 -227 -285 -374 l-92 -94 0 -66 c0 -78 18 -110 81 -141 49 -24
94 -26 137 -3 67 34 256 234 325 343 9 14 19 27 22 30 25 22 190 330 190 354
0 2 5 17 12 33 13 33 11 27 38 118 31 104 50 201 56 280 3 39 6 72 7 75 0 3
-3 16 -7 30 -29 85 -119 133 -200 105z"/>
<path d="M5074 3680 c-50 -25 -84 -81 -89 -151 -3 -28 -9 -77 -15 -108 -6 -31
-13 -67 -16 -81 -8 -47 -54 -177 -84 -241 -85 -182 -168 -298 -323 -453 -86
-86 -97 -106 -97 -170 0 -109 129 -183 229 -132 37 20 163 141 236 230 183
220 331 536 370 791 32 213 20 272 -69 314 -53 26 -90 26 -142 1z"/>
<path d="M175 1407 c-51 -17 -115 -58 -115 -74 0 -7 -4 -13 -9 -13 -15 0 -41
-77 -41 -121 0 -94 50 -150 193 -218 57 -26 107 -56 110 -65 9 -22 -8 -63 -30
-74 -34 -18 -93 6 -93 38 0 13 -22 11 -128 -12 -44 -9 -52 -15 -52 -34 0 -29
56 -103 95 -125 40 -24 87 -33 165 -31 126 1 203 62 226 177 5 22 7 44 5 50
-2 9 -7 44 -10 72 -3 35 -80 98 -179 146 -57 28 -107 58 -112 67 -26 48 59 94
95 52 16 -18 18 -18 93 1 43 11 79 21 81 23 2 2 1 14 -3 28 -9 37 -54 85 -95
102 -51 21 -148 27 -196 11z"/>
<path d="M3029 1399 c-10 -6 -15 -691 -5 -707 8 -13 319 -6 371 8 59 16 125
78 141 130 25 82 0 178 -56 215 -35 23 -37 32 -11 54 10 9 26 31 36 50 23 45
15 128 -15 171 -21 30 -81 66 -124 77 -32 7 -325 10 -337 2z m309 -182 c21
-16 15 -65 -10 -81 -29 -18 -115 -26 -127 -12 -5 6 -9 35 -8 64 0 50 2 53 23
49 12 -2 28 -1 35 3 12 8 65 -6 87 -23z m17 -257 c8 -7 15 -27 15 -46 0 -48
-29 -64 -112 -64 l-68 0 0 58 c0 32 2 61 5 64 11 10 145 0 160 -12z"/>
<path d="M4587 1400 c-8 -3 -12 -33 -11 -95 0 -49 -1 -93 -3 -97 -2 -5 -19 0
-36 9 -23 12 -56 17 -112 17 -67 0 -88 -4 -131 -26 -54 -28 -103 -77 -130
-130 -14 -28 -19 -44 -28 -107 -2 -8 1 -35 6 -60 5 -25 10 -52 12 -59 1 -7 8
-18 14 -24 7 -7 12 -17 12 -22 0 -22 92 -95 144 -115 64 -24 164 -23 212 2 20
10 34 13 41 6 8 -8 78 -13 149 -10 20 1 20 4 20 350 -1 192 -4 353 -9 357 -8
9 -131 12 -150 4z m-67 -336 c50 -30 68 -102 43 -167 -32 -78 -141 -94 -207
-28 -26 26 -30 38 -30 83 -2 109 100 167 194 112z"/>
<path d="M5252 1395 c-4 -5 -8 -48 -9 -95 0 -47 -2 -88 -2 -93 -1 -4 -16 0
-33 10 -47 25 -189 23 -239 -3 -45 -24 -98 -70 -122 -108 -46 -70 -56 -186
-22 -256 33 -68 38 -75 80 -109 84 -67 194 -87 287 -51 26 10 50 14 55 9 10
-10 151 -15 160 -5 8 8 10 685 2 698 -9 14 -149 16 -157 3z m-65 -331 c32 -20
48 -52 57 -112 5 -37 -47 -109 -88 -121 -67 -18 -133 15 -160 80 -46 112 89
220 191 153z"/>
<path d="M2228 1317 l-3 -82 -83 -6 c-46 -4 -88 -11 -94 -17 -8 -8 -14 -7 -22
4 -8 11 -32 15 -84 16 -40 1 -76 -2 -80 -6 -10 -11 -9 -526 1 -533 13 -8 156
-7 164 1 5 4 8 83 8 174 1 92 4 177 8 188 9 25 27 30 117 29 l65 0 5 -160 c5
-176 13 -201 68 -228 33 -17 157 -23 166 -8 4 6 9 30 11 53 3 24 7 53 9 66 4
19 1 22 -28 22 -48 0 -56 16 -55 109 1 45 -1 84 -4 87 -3 3 -2 17 2 32 5 18
15 27 29 28 12 1 28 2 35 3 10 1 13 20 13 71 -1 74 -5 78 -62 71 -13 -2 -24
53 -14 69 3 6 4 29 1 53 l-6 42 -82 2 -82 2 -3 -82z"/>
<path d="M628 1232 l-68 -3 -1 -42 c0 -51 0 -539 0 -619 l1 -58 85 0 85 0 0
99 0 99 48 -18 c64 -24 160 -21 224 9 221 101 220 413 -2 514 -61 28 -159 31
-222 7 -36 -14 -48 -15 -48 -5 0 17 -22 21 -102 17z m271 -156 c54 -12 97 -84
85 -140 -26 -120 -185 -150 -240 -45 -31 62 -6 148 54 180 32 16 48 17 101 5z"/>
<path d="M1418 1225 c-121 -44 -193 -142 -199 -270 -6 -154 139 -289 303 -281
158 6 272 125 273 281 0 113 -59 206 -160 255 -56 27 -163 34 -217 15z m163
-168 c22 -13 55 -73 54 -97 -5 -74 -50 -122 -120 -126 -104 -5 -166 104 -109
192 34 51 118 66 175 31z"/>
<path d="M2650 1227 c-19 -6 -54 -31 -77 -55 -38 -39 -43 -49 -43 -91 0 -73
32 -109 146 -165 38 -19 76 -41 83 -50 30 -36 -22 -63 -64 -33 -15 12 -29 11
-89 -1 -39 -7 -75 -18 -80 -23 -16 -15 37 -78 84 -101 62 -31 187 -32 244 -3
57 29 96 82 100 136 5 66 -27 116 -99 151 -154 76 -166 85 -128 107 13 7 26 5
44 -6 24 -15 35 -15 96 -2 55 11 69 18 71 34 3 26 -39 71 -86 91 -48 20 -157
26 -202 11z"/>
<path d="M3582 1043 c1 -104 5 -203 10 -221 29 -103 172 -170 274 -127 28 12
39 13 45 4 7 -12 154 -17 165 -6 6 5 5 4 5 130 0 48 0 93 0 100 0 6 0 48 0 92
0 44 0 87 0 95 0 8 0 39 -2 68 l-2 52 -88 0 -89 0 0 -178 c0 -191 -4 -208 -50
-217 -33 -7 -80 13 -82 34 0 9 -2 84 -4 166 -1 83 -3 160 -3 173 -1 21 -5 22
-90 22 l-90 0 1 -187z"/>
<path d="M5450 1218 c0 -10 90 -265 111 -313 5 -11 22 -57 38 -102 l30 -82
-33 -98 c-19 -54 -32 -101 -30 -105 3 -4 44 -7 91 -5 l87 2 19 50 c10 28 25
66 32 85 8 19 33 89 56 155 23 66 47 131 52 145 6 14 11 27 12 30 7 29 30 88
38 98 5 6 7 12 3 12 -3 0 1 17 10 38 8 20 17 44 19 52 2 8 6 23 10 33 6 15 -1
17 -82 17 l-89 0 -38 -112 c-21 -62 -44 -126 -51 -142 -16 -35 -15 -37 -76
131 l-44 123 -82 0 c-56 0 -83 -4 -83 -12z"/>
</g>
</svg>
